<?xml version="1.0" encoding="utf-8"?>
<!-- Generator: Adobe Illustrator 26.0.0, SVG Export Plug-In . SVG Version: 6.00 Build 0)  -->
<svg version="1.1" id="Layer_1" xmlns="http://www.w3.org/2000/svg" xmlns:xlink="http://www.w3.org/1999/xlink" x="0px" y="0px"
	 viewBox="0 0 347 443" style="enable-background:new 0 0 347 443;" xml:space="preserve">
<style type="text/css">
	.st0{fill:#CBE5F7;}
	.st1{fill:#9B1D23;}
	.st2{font-family:'LEMONMILKProFTR-Bold';}
	.st3{font-size:31.3225px;}
</style>
<g>
	<defs>
		<path id="SVGID_1_" d="M8,26L302.8,0.2c4.4-0.4,8.3,2.9,8.7,7.3l35,400.5c0.4,4.4-2.9,8.3-7.3,8.7L44.4,442.4
			c-4.4,0.4-8.3-2.9-8.7-7.3L0.7,34.7C0.3,30.3,3.6,26.4,8,26z"/>
	</defs>
	<clipPath id="SVGID_00000182509109253009961410000004880686987621454246_">
		<use xlink:href="#SVGID_1_"  style="overflow:visible;"/>
	</clipPath>
	<g style="clip-path:url(#SVGID_00000182509109253009961410000004880686987621454246_);">
		
			<image style="overflow:visible;" width="1080" height="740" xlink:href="../../../../../../../Users/faruh/Downloads/434946916_122139695846131045_4934722121601794375_n.jpg"  transform="matrix(0.6039 0 0 0.6039 -20.6383 -2.3657)">
		</image>
	</g>
</g>
<rect x="28.1" y="131.1" transform="matrix(0.9999 -1.420584e-02 1.420584e-02 0.9999 -2.0608 1.8536)" class="st0" width="202.8" height="29.7"/>
<rect x="36.4" y="92.4" transform="matrix(0.9975 -7.112980e-02 7.112980e-02 0.9975 -7.2797 10.0727)" class="st0" width="202.8" height="29.7"/>
<g>
	<text transform="matrix(0.9988 -4.884106e-02 4.884106e-02 0.9988 30.0535 125.1078)"><tspan x="0" y="0" class="st1 st2 st3">Engage the</tspan><tspan x="0" y="37.6" class="st1 st2 st3">Community</tspan></text>
</g>
</svg>
