<?xml version="1.0" encoding="utf-8"?>
<!-- Generator: Adobe Illustrator 26.0.0, SVG Export Plug-In . SVG Version: 6.00 Build 0)  -->
<svg version="1.1" id="Layer_1" xmlns="http://www.w3.org/2000/svg" xmlns:xlink="http://www.w3.org/1999/xlink" x="0px" y="0px"
	 viewBox="0 0 331 443" style="enable-background:new 0 0 331 443;" xml:space="preserve">
<style type="text/css">
	.st0{fill:#CBE5F7;}
	.st1{font-family:'LEMONMILKProFTR-Bold';}
	.st2{font-size:43px;}
</style>
<g>
	<defs>
		<path id="SVGID_1_" d="M37.1,0.6l286,20c4.4,0.3,7.7,4.1,7.4,8.5l-28.4,405.7c-0.3,4.4-4.1,7.7-8.5,7.4l-286-20
			c-4.4-0.3-7.7-4.1-7.4-8.5L28.5,8C28.8,3.6,32.6,0.2,37.1,0.6z"/>
	</defs>
	<clipPath id="SVGID_00000039101867334242607130000001663060519897937802_">
		<use xlink:href="#SVGID_1_"  style="overflow:visible;"/>
	</clipPath>
	
		<g transform="matrix(1 0 0 1 1.907349e-06 0)" style="clip-path:url(#SVGID_00000039101867334242607130000001663060519897937802_);">
		
			<image style="overflow:visible;" width="2048" height="1152" xlink:href="../../../../../../../Users/faruh/Downloads/465567134_122180266346131045_4385181754630704214_n.jpg"  transform="matrix(2.228733e-02 -0.2697 0.2697 2.228733e-02 -17.0933 547.2375)">
		</image>
	</g>
</g>
<text transform="matrix(1 0 0 1 38.0437 311.8608)"><tspan x="0" y="0" class="st0 st1 st2">Develop &amp;</tspan><tspan x="0" y="51.6" class="st0 st1 st2">Sustain</tspan></text>
</svg>
