<svg id="Layer_2" data-name="Layer 2" xmlns="http://www.w3.org/2000/svg" viewBox="0 0 2000 2000"><defs><style>.cls-1{fill:#cbe5f8;}.cls-2{fill:#2a333f;}.cls-3{fill:#ed2024;}.cls-4{fill:#9b1c22;}.cls-5,.cls-6{fill:#29333f;}.cls-6{font-size:136.2px;font-family:LEMONMILKProFTR-Regular, LEMON MILK Pro FTR;}.cls-7{letter-spacing:-0.07em;}.cls-8{letter-spacing:-0.03em;}</style></defs><path class="cls-1" d="M1294.18,1138.4l-8.68-8.69-94.91-94.85a11,11,0,0,0-8-3.36h0a11.32,11.32,0,0,0-8.13,3.32,8.87,8.87,0,0,0-1.9,9.11,113.45,113.45,0,0,1-108,147.79h-1.76a112.63,112.63,0,0,1-80.84-35.63c-40.25-42.72-41-110.23-1.66-153.71a113.77,113.77,0,0,1,118.63-32.12,8.87,8.87,0,0,0,9-1.87,11.55,11.55,0,0,0,3.38-8.16,11.4,11.4,0,0,0-3.38-8.11L1000,844.25l-97.82,97.82a55.55,55.55,0,0,1-39.6,16.44h-.23c-1.13,0-2.3,0-3.42-.11l-.26,0a56.56,56.56,0,0,1-20.9-5.57c-1.12-.54-2.18-1.13-3.17-1.69l-2.35-1.33-.13-.21c-.22-.14-.43-.29-.65-.42-1.21-.79-2.46-1.7-3.78-2.76-1-.76-1.9-1.56-2.82-2.39l-1.54-.4-1.5-2.56a53.42,53.42,0,0,1-5.72-7.19c-.69-1.06-1.24-2-1.73-2.85a16.15,16.15,0,0,1-1-1.76c-.44-.82-.84-1.65-1.21-2.45-.78-1.71-1.3-3-1.75-4.27-.56-1.55-1-3-1.32-4.31s-.63-2.52-.83-3.65a49,49,0,0,1-.81-6.86l-.07-1.79c0-1.31,0-2.51,0-3.71V902c.11-1.79.25-3.3.44-4.73.07-.65.16-1.2.23-1.62.31-1.82.69-3.59,1.16-5.31.21-.81.48-1.65.73-2.44a68.6,68.6,0,0,0-8-58.59c-.82-1.22-1.57-2.28-2.24-3.18-1-1.29-1.78-2.3-2.58-3.23l-.32-.4c-.3-.39-.76-.89-1.24-1.42l-.23-.25c-.41-.47-.91-1-1.44-1.52-1.23-1.28-2.34-2.36-3.42-3.34l-.6-.54,0,0-.08-.07c-.58-.49-1.15-1-1.68-1.45a70.74,70.74,0,0,0-9.73-6.71c-.94-.55-1.94-1.06-3-1.6l-2-.95a67.26,67.26,0,0,0-30-6.4c-1.17,0-2,0-2.84.1h-.18c-.79.05-1.55.09-2.3.17l-.23,0-.93.08-.13,0-.36,0-1.91.35-.31-.09-.36.06-.31.06c-.69.1-1.44.23-2.19.39l-.29.06a61,61,0,0,0-8.84,2.4l-.4.13c-.51.16-1,.35-1.61.57l-.51.19-.13,0-.06.09-2.94,1.16-.14,0-1.61.74c-.18.08-.35.17-.53.27l-.48.23c-1,.46-1.88.91-2.7,1.39l-.32.17c-.82.43-1.68.94-2.87,1.68l-2.27,1.49a10.47,10.47,0,0,0-1.1.77l-.46.34a63.4,63.4,0,0,0-6.94,5.73,66.77,66.77,0,0,0-5.7,6.06l-.11.13c-.79.93-1.62,2-2.6,3.31-.46.62-.87,1.18-1.21,1.69l-.08.12c-.41.6-.82,1.23-1.2,1.84l-.06.08a62.39,62.39,0,0,0-4.28,7.91l0,0-.24.89-.54.82c-.07.15-.14.29-.2.44l-.18.46c-.24.57-.48,1.14-.69,1.71l-.44,1.22c-.22.63-.47,1.3-.67,1.94a68.47,68.47,0,0,0-3.37,20.43c0,1,0,2.09,0,3.09l0,.44c0,.71.07,1.54.14,2.41l0,.65a3.87,3.87,0,0,0,0,.6l.11.6,0,.61a15.93,15.93,0,0,0,.24,1.87l.06.42a61.2,61.2,0,0,0,2.91,12.27l.09.27c.17.53.42,1.18.68,1.87l.27.77a13.88,13.88,0,0,0,.83,2l.23.45.18.47a23.59,23.59,0,0,0,1.12,2.41l.26.53c.36.79.8,1.63,1.34,2.56l.14.25c.64,1.19,1.34,2.36,2.07,3.48l.17.26c.35.57.64,1,.87,1.3l.38.54c.35.53.71,1.05,1.12,1.59l.15.21c.46.65,1,1.3,1.48,1.91l.18.22c.77,1,1.66,2,2.6,3,.79.87,1.48,1.59,2.1,2.18l1.72,1.69c.41.38.8.77,1.24,1.14l.12.11c.42.37.84.74,1.27,1.09l.23.2c.81.69,1.57,1.31,2.31,1.87l.23.18c.58.46,1.12.86,1.65,1.22l2.06,1.45q2.14,1.43,4.32,2.62l.11.06a67.54,67.54,0,0,0,39.88,8.53l.17,0c1.37-.1,2.84-.3,4.75-.62l.11,0c1.81-.29,3.24-.58,4.5-.9l.27-.07c.9-.21,1.84-.45,2.84-.73l2.12-.66.77-.23,1.88-.59.14,0c1.14-.3,2.29-.56,3.43-.78l.14,0c.76-.14,1.56-.27,2.31-.37a57.45,57.45,0,0,1,6.4-.58h.2a52.75,52.75,0,0,1,38.74,15.44l1,1.07.95,1,.14.16a58.83,58.83,0,0,1,4.8,6.18c.55.78,1.09,1.64,1.66,2.62.75,1.24,1.43,2.48,2.08,3.78a55.11,55.11,0,0,1,5.7,22c.05.86.07,1.71.08,2.56v.27a55.63,55.63,0,0,1-16.43,39.69L714.54,1129.71l-8.7,8.73a22.33,22.33,0,0,1-11.35,6.06l236.59,236.58a97.56,97.56,0,0,0,137.84,0l236.58-236.59A22.13,22.13,0,0,1,1294.18,1138.4Z"/><path class="cls-2" d="M687.47,953.38a102.66,102.66,0,0,0,68.21,16.53A104.5,104.5,0,0,1,687.47,953.38Zm159.75-35.84.09.06c-.28-.29-.57-.59-.85-.91A8,8,0,0,0,847.22,917.54Zm-2.9-3.87a16.94,16.94,0,0,1-1.4-3.32A19.78,19.78,0,0,0,844.32,913.67Zm-1.75-4.47a23.33,23.33,0,0,1-.51-3.67A17.45,17.45,0,0,0,842.57,909.2Zm-.51-3.67a22.42,22.42,0,0,1,.14-3.64A15.86,15.86,0,0,0,842.06,905.53Zm.17-3.74a20,20,0,0,1,.74-3.3A17.19,17.19,0,0,0,842.23,901.79ZM819.49,891c-.21.64-.39,1.32-.56,2,.17-.64.39-1.32.59-2a78.76,78.76,0,0,0-9.17-67.15A79.73,79.73,0,0,1,819.49,891ZM641,865.61A101.42,101.42,0,0,0,643.07,887c-.16-.81-.31-1.6-.44-2.43a99.91,99.91,0,0,1-1.4-20.72,23.35,23.35,0,0,1,.13-2.77c0-1,.1-2,.19-3.05s.19-1.91.3-2.87.19-1.8.33-2.71.23-1.54.36-2.31c.15-1.12.39-2.26.62-3.4s.46-2.24.72-3.37a102.12,102.12,0,0,1,12.78-31A101.92,101.92,0,0,0,641,865.61Zm2.29,22.68c.09.49.22,1,.3,1.46s.26,1.09.4,1.64c-.24-.92-.42-1.85-.62-2.78-.12-.54-.22-1.08-.32-1.61,0,.19.06.39.1.59S643.27,888.06,643.31,888.29Zm100-100c-1.16,0-2.3,0-3.45.13-.89,0-1.78.11-2.68.19a19.94,19.94,0,0,0-2.18.26.43.43,0,0,0-.29,0c-.87.09-1.73.19-2.61.35s-1.87.31-2.83.52-1.91.44-2.81.67a79.85,79.85,0,0,1,51.39,5.25A77.53,77.53,0,0,0,743.31,788.31ZM687.47,953.38a102.66,102.66,0,0,0,68.21,16.53A104.5,104.5,0,0,1,687.47,953.38Zm159.75-35.84.09.06c-.28-.29-.57-.59-.85-.91A8,8,0,0,0,847.22,917.54Zm-2.9-3.87a16.94,16.94,0,0,1-1.4-3.32A19.78,19.78,0,0,0,844.32,913.67Zm-1.75-4.47a23.33,23.33,0,0,1-.51-3.67A17.45,17.45,0,0,0,842.57,909.2Zm-.51-3.67a22.42,22.42,0,0,1,.14-3.64A15.86,15.86,0,0,0,842.06,905.53Zm.17-3.74a20,20,0,0,1,.74-3.3A17.19,17.19,0,0,0,842.23,901.79ZM641,865.61A101.42,101.42,0,0,0,643.07,887c-.16-.81-.31-1.6-.44-2.43a99.91,99.91,0,0,1-1.4-20.72,23.35,23.35,0,0,1,.13-2.77c0-1,.1-2,.19-3.05s.19-1.91.3-2.87.19-1.8.33-2.71.23-1.54.36-2.31c.15-1.12.39-2.26.62-3.4s.46-2.24.72-3.37a102.12,102.12,0,0,1,12.78-31A101.92,101.92,0,0,0,641,865.61Zm2.29,22.68c.09.49.22,1,.3,1.46s.26,1.09.4,1.64c-.24-.92-.42-1.85-.62-2.78-.12-.54-.22-1.08-.32-1.61,0,.19.06.39.1.59S643.27,888.06,643.31,888.29Z"/><path class="cls-3" d="M644,891.39c-.27-1-.47-2.06-.7-3.1.09.49.22,1,.3,1.46S643.87,890.84,644,891.39Z"/><path class="cls-4" d="M1301.24,494l-8.7,8.7-104.9,104.93a45.74,45.74,0,0,0-13.5,32.61c0,1.53.08,3.08.23,4.57a45.65,45.65,0,0,0,4.57,15.94c.22.42.41.8.63,1.18a45.72,45.72,0,0,0,8,10.82s0,0,.05.08a43.42,43.42,0,0,0,44,10.38,85.05,85.05,0,0,1,8.26-2.15.1.1,0,0,0,.08,0,78.26,78.26,0,0,1,63.6,14.82c.76.57,1.51,1.17,2.22,1.76s1.49,1.24,2.19,1.9,1.41,1.25,2.1,2c.41.36.79.72,1.16,1.11a1.27,1.27,0,0,0,.11.13c.92.91,1.8,1.83,2.65,2.75,1,1.15,2,2.29,2.93,3.45.72.85,1.4,1.72,2,2.62s1.19,1.66,1.77,2.51c.37.5.73,1.07,1.09,1.64.9,1.37,1.76,2.8,2.54,4.25.64,1.12,1.25,2.26,1.77,3.42a29.53,29.53,0,0,1,1.61,3.49,23.84,23.84,0,0,1,1.46,3.56c.31.85.64,1.66.88,2.53a13.06,13.06,0,0,1,.47,1.51,75.3,75.3,0,0,1,3.76,25,77.11,77.11,0,0,1-6.43,30,33.49,33.49,0,0,1-1.57,3.4c-.3.72-.68,1.46-1,2.16a67.55,67.55,0,0,1-3.57,6.14c-.63,1-1.29,2-2,2.93-.3.46-.64.88-1,1.3-1.08,1.46-2.23,2.9-3.4,4.26-.59.72-1.21,1.39-1.82,2.06-1.24,1.34-2.54,2.67-3.9,3.94a74.71,74.71,0,0,1-8,6.63,23.85,23.85,0,0,1-2.11,1.47l-2.12,1.4c-1.18.74-2.36,1.44-3.59,2.1s-2.34,1.26-3.54,1.81a31.55,31.55,0,0,1-3.24,1.5l-.18.1a33.06,33.06,0,0,1-3.5,1.39,76.36,76.36,0,0,1-26.67,5.09,77.85,77.85,0,0,1-38.34-9.33l-2.25-1.26a81.08,81.08,0,0,1-10.78-7.47c-.53-.47-1.09-.95-1.65-1.43-.27-.22-.5-.46-.77-.68-1.38-1.24-2.7-2.54-4-3.87-.62-.64-1.25-1.32-1.86-2s-1.24-1.35-1.81-2.09c-1-1.13-1.89-2.32-2.78-3.47s-1.62-2.26-2.41-3.38-1.39-2.16-2-3.27-1.12-1.94-1.65-2.92a77.78,77.78,0,0,1-8.77-48.7c.17-1.3.4-2.55.63-3.83a74.72,74.72,0,0,1,2.27-9,44,44,0,0,0,.74-24.63,42.14,42.14,0,0,0-2.89-7.84,40.29,40.29,0,0,0-2.84-4.91c-.85-1.28-1.79-2.55-2.8-3.81-.84-1-1.67-1.9-2.6-2.8,0,0,0-.06-.08-.1a45.55,45.55,0,0,0-23.4-12.53,51.85,51.85,0,0,0-6-.78c-1-.09-2-.11-3.1-.1a45.72,45.72,0,0,0-32.59,13.48L1000,795.3,895.11,690.42a21.51,21.51,0,0,1,0-30.41.11.11,0,0,1,0,0,19.57,19.57,0,0,1,1.85-1.58c.32-.25.64-.49,1-.72a9.39,9.39,0,0,1,1-.6,19,19,0,0,1,15.19-1.39,103.73,103.73,0,0,0,108.29-29.38c35.83-39.7,35.07-101.28-1.7-140.15A103.4,103.4,0,0,0,847.09,588.5a18.86,18.86,0,0,1-4.33,19.15s-.09.05-.09.09a21.51,21.51,0,0,1-30.31-.08L707.43,502.77l-8.7-8.7a12,12,0,0,0-8.68-3.6,12.25,12.25,0,0,0-8.72,3.59L431.58,743.82a97.47,97.47,0,0,0,0,137.8l249.75,249.75a12.33,12.33,0,0,0,17.4,0l8.71-8.74,104.89-104.89a45.76,45.76,0,0,0,13.5-32.6c0-.77,0-1.54-.07-2.32a45.32,45.32,0,0,0-4.66-18.07c-.54-1.09-1.11-2.11-1.74-3.16-.4-.69-.83-1.38-1.28-2a49.21,49.21,0,0,0-4.05-5.24c-.54-.58-1-1.12-1.6-1.67a1.27,1.27,0,0,0-.11-.13A42.92,42.92,0,0,0,780.9,940a44.46,44.46,0,0,0-5.37.49c-.65.08-1.33.19-2,.31a53.2,53.2,0,0,0-5.19,1.3,0,0,0,0,1,0,0c-1.87.59-3.72,1.11-5.63,1.55s-3.64.81-5.42,1.09-3.77.6-5.66.74a77.74,77.74,0,0,1-45.77-9.78,74.85,74.85,0,0,1-7.13-4.5l0,0c-.8-.54-1.56-1.11-2.31-1.71-1-.74-1.9-1.49-2.81-2.28-.54-.44-1.07-.91-1.6-1.38-.74-.63-1.4-1.29-2.1-2-.41-.36-.79-.72-1.16-1.11a1.27,1.27,0,0,0-.11-.13c-.89-.86-1.78-1.79-2.65-2.75-1-1.15-2-2.29-2.93-3.45-.72-.85-1.4-1.72-2-2.62-.51-.68-1-1.35-1.45-2.06s-.95-1.35-1.41-2.09c-.9-1.37-1.76-2.8-2.54-4.25-.64-1.12-1.25-2.26-1.77-3.42a31.31,31.31,0,0,1-1.62-3.49,24.41,24.41,0,0,1-1.45-3.56c-.32-.85-.66-1.74-.93-2.61a71.26,71.26,0,0,1-3.39-14.27,27.56,27.56,0,0,1-.37-3,13.72,13.72,0,0,1-.2-2.24c-.08-1-.17-2.08-.17-3.14-.07-1.25-.07-2.49-.05-3.76a78.9,78.9,0,0,1,3.83-23.29c.25-.77.54-1.57.81-2.33l.44-1.23c.27-.73.57-1.45.87-2.17.15-.4.32-.79.5-1.18a4.08,4.08,0,0,1,.41-.84,4.5,4.5,0,0,1,.38-.88,72.35,72.35,0,0,1,5-9.15c.45-.72.94-1.46,1.42-2.17s1-1.44,1.52-2.14c1-1.31,2-2.61,3-3.85a76,76,0,0,1,6.52-7,74.71,74.71,0,0,1,8-6.63,23.85,23.85,0,0,1,2.11-1.47l2.12-1.4c1.18-.74,2.36-1.44,3.59-2.1s2.34-1.26,3.54-1.81a31.55,31.55,0,0,1,3.24-1.5c.06-.09.11-.12.18-.1a33.06,33.06,0,0,1,3.5-1.39c.77-.3,1.53-.57,2.29-.81a70.43,70.43,0,0,1,10.33-2.8c1-.21,1.88-.37,2.83-.52s1.74-.26,2.61-.35a.43.43,0,0,1,.29,0,19.94,19.94,0,0,1,2.18-.26c.9-.08,1.79-.14,2.68-.19,1.15-.09,2.29-.12,3.45-.13a77.53,77.53,0,0,1,34.54,7.4l2.06,1c1.19.61,2.37,1.21,3.54,1.89a80.87,80.87,0,0,1,11.24,7.78c.53.47,1.09,1,1.65,1.43.27.22.5.46.77.68,1.38,1.24,2.7,2.54,4,3.87.62.64,1.25,1.28,1.86,2s1.24,1.35,1.81,2.09c1.06,1.23,2,2.47,3,3.75s1.75,2.44,2.58,3.68A78.76,78.76,0,0,1,819.52,891c-.2.63-.42,1.31-.59,2-.39,1.43-.7,2.87-.95,4.34-.06.38-.13.76-.16,1.15-.2,1.41-.31,2.8-.4,4.19,0,1,0,1.92,0,2.88,0,.59.05,1.17.07,1.76a37.79,37.79,0,0,0,.67,5.53c.15.92.38,1.85.63,2.8.33,1.21.67,2.4,1.09,3.56s.9,2.32,1.41,3.44c.34.75.72,1.5,1.11,2.23a6.17,6.17,0,0,0,.59,1.06c.44.81.94,1.64,1.46,2.44a42.76,42.76,0,0,0,5.4,6.61.1.1,0,0,0,.06,0s.05.06.08.1a48,48,0,0,0,3.94,3.49c1,.77,2,1.51,3,2.2.83.55,1.67,1.1,2.52,1.58,0,0,0,0,.06,0,.86.49,1.74,1,2.61,1.4a45.22,45.22,0,0,0,12.75,4.07c1.49.25,3,.41,4.55.52,1,.06,2.06.08,3.07.1A45.66,45.66,0,0,0,895.11,935L1000,830.11,1114.94,945a21.47,21.47,0,0,1,0,30.4,18.79,18.79,0,0,1-19.15,4.34,103.75,103.75,0,0,0-108.19,29.3c-35.85,39.65-35.19,101.17,1.52,140.13A103.42,103.42,0,0,0,1163,1047a18.8,18.8,0,0,1,4.34-19.19,21.5,21.5,0,0,1,30.36,0l94.91,94.86,8.7,8.7a12.28,12.28,0,0,0,17.4,0l249.71-249.73a96.87,96.87,0,0,0,25.25-43.55,98.28,98.28,0,0,0,3.3-25.36,96.68,96.68,0,0,0-28.54-68.92L1318.64,494A12.3,12.3,0,0,0,1301.24,494ZM877.71,917.59a21.5,21.5,0,0,1-30.37.06l0,0-.09-.06a8,8,0,0,1-.76-.85,20.61,20.61,0,0,1-2.14-3,16.94,16.94,0,0,1-1.4-3.32c-.12-.36-.24-.76-.35-1.15a17.45,17.45,0,0,1-.51-3.67,15.86,15.86,0,0,1,.14-3.64.07.07,0,0,0,0-.1,17.19,17.19,0,0,1,.74-3.3c.86-2.68,1.59-5.4,2.2-8.11.23-1,.45-1.92.63-2.89s.35-1.83.53-2.77A104.34,104.34,0,0,0,829.25,808c-1.08-1.53-2.2-3.07-3.37-4.54-.81-1.06-1.66-2.09-2.51-3.12-.7-.8-1.39-1.61-2.1-2.38s-1.4-1.54-2.12-2.28c-.93-1-1.91-2-2.89-2.92s-1.77-1.68-2.68-2.5-1.56-1.37-2.33-2.05-1.6-1.34-2.39-1.95-1.62-1.27-2.44-1.89q-2.45-1.86-5-3.52a104.19,104.19,0,0,0-109.92-2.55c-.82.48-1.61,1-2.4,1.47l-2.38,1.55c-1.86,1.25-3.71,2.57-5.5,4-.69.54-1.34,1.06-2,1.61-.41.33-.78.63-1.16,1l-1.84,1.55c-1,.84-1.87,1.69-2.8,2.56-.4.41-.82.77-1.22,1.17-.73.68-1.43,1.4-2.14,2.16-.6.6-1.17,1.21-1.73,1.83-.83.9-1.61,1.79-2.4,2.7-.63.71-1.22,1.42-1.81,2.14q-1.38,1.71-2.67,3.43c-.56.73-1.08,1.46-1.61,2.23a12,12,0,0,0-.78,1.14c-.83,1.2-1.64,2.44-2.41,3.69a102.12,102.12,0,0,0-12.78,31c-.26,1.13-.52,2.22-.72,3.37s-.47,2.28-.62,3.4c-.13.77-.27,1.53-.36,2.31s-.24,1.83-.33,2.71-.22,1.91-.3,2.87-.14,2-.19,3.05a23.35,23.35,0,0,0-.13,2.77,99.91,99.91,0,0,0,1.4,20.72c.17,1,.34,2,.54,3,.05.23.1.47.14.7.23,1,.43,2.08.7,3.1.18.7.34,1.43.52,2.14s.33,1.21.5,1.81c.24.86.49,1.69.74,2.52.31,1,.65,2.07,1,3.11.45,1.32.94,2.62,1.43,3.91.58,1.51,1.2,3,1.83,4.43s1.34,2.9,2.05,4.33,1.58,3.05,2.42,4.55,1.84,3.18,2.85,4.73a.78.78,0,0,0,.13.18c.42.62.8,1.23,1.22,1.82.64,1,1.3,2,2,2.86.83,1.13,1.65,2.27,2.53,3.34.57.73,1.14,1.43,1.75,2.18.88,1,1.77,2.08,2.7,3.09s2.14,2.32,3.27,3.42c.11.14.26.25.37.39,2.3,2.29,4.67,4.46,7.14,6.5.87.71,1.71,1.37,2.55,2,1.1.92,2.26,1.77,3.42,2.59s2,1.39,3.05,2.06a104.5,104.5,0,0,0,68.21,16.53s0,0,0,0c1.84-.2,3.65-.44,5.48-.75,0,0,0,0,.08,0,1.79-.32,3.59-.63,5.37-1,3.06-.67,6.12-1.49,9.15-2.47a19.09,19.09,0,0,1,16.34,2,13,13,0,0,1,1.84,1.41c.3.26.59.52.88.81,0,0,.06.06.09.06a21.51,21.51,0,0,1,0,30.41L690.07,1105.24,449,864.22a72.82,72.82,0,0,1,0-103L690,520.17,795,625.06a46.19,46.19,0,0,0,65.21,0c.05-.06.09-.08.15-.14A43.38,43.38,0,0,0,870.54,581a78.79,78.79,0,0,1,132.37-78c28,29.65,28.6,76.55,1.32,106.77a79,79,0,0,1-82.52,22.38,43.36,43.36,0,0,0-44,10.42s-.05.06-.09.08a46.12,46.12,0,0,0,.1,65.13L982.6,812.7ZM1551,761.19a72.86,72.86,0,0,1,0,103l-241,241-94.9-94.89a46.08,46.08,0,0,0-65.2,0,43.41,43.41,0,0,0-10.38,44A78.8,78.8,0,0,1,1007,1132.31c-27.95-29.66-28.46-76.54-1.15-106.73a79.15,79.15,0,0,1,82.48-22.35,43.25,43.25,0,0,0,44-10.38,46.15,46.15,0,0,0,0-65.21L1017.4,812.71l104.9-104.93a21.51,21.51,0,0,1,30.39,0,.16.16,0,0,1,.06.05,17,17,0,0,1,3.45,4.93,16.12,16.12,0,0,1,.9,2.2,7.6,7.6,0,0,1,.33,1.22,16.31,16.31,0,0,1,.52,3.64,19.63,19.63,0,0,1-.92,7.07q-1.37,4.27-2.32,8.66c-.23,1-.46,2-.65,3-.21,1.18-.42,2.37-.62,3.55s-.34,2.35-.48,3.55a104.49,104.49,0,0,0-.77,10.61c0,1.45,0,2.9,0,4.36,0,2.53.2,5.08.44,7.59.08,1,.21,2,.34,3.07s.26,1.89.41,2.84a104.88,104.88,0,0,0,15.28,40.25c.69,1.09,1.4,2.12,2.13,3.19s1.73,2.36,2.62,3.54,2,2.46,3,3.68c1.43,1.73,2.95,3.41,4.51,5.06a6.21,6.21,0,0,1,.62.64c.75.75,1.5,1.5,2.25,2.21s1.74,1.67,2.65,2.49c.76.68,1.56,1.37,2.33,2s1.6,1.34,2.39,2,1.62,1.27,2.44,1.89q2.45,1.86,5,3.52a104.23,104.23,0,0,0,112.32,1.08l2.38-1.55c1.86-1.25,3.71-2.57,5.5-3.95.69-.54,1.34-1.06,2-1.61.41-.33.78-.63,1.16-1l1.84-1.55c1-.84,1.87-1.68,2.8-2.56.4-.41.82-.77,1.22-1.17.73-.68,1.43-1.4,2.14-2.16.6-.6,1.17-1.21,1.73-1.83.83-.9,1.61-1.79,2.4-2.7.63-.71,1.22-1.42,1.81-2.14,1.13-1.37,2.2-2.76,3.19-4.17,1.16-1.62,2.3-3.28,3.37-5a.89.89,0,0,0,.14-.25c.68-1.06,1.37-2.11,2-3.18a9.6,9.6,0,0,0,.54-.92c.54-.94,1.05-1.9,1.56-2.82a103,103,0,0,0,8.61-21.83,104.8,104.8,0,0,0-1.91-60.54c-.41-1.32-.9-2.61-1.4-3.88s-1.09-2.73-1.67-4.08c-.72-1.65-1.49-3.28-2.26-4.87a.91.91,0,0,0-.13-.22c-.73-1.47-1.51-2.91-2.32-4.37-.08-.13-.13-.21-.2-.34-.89-1.59-1.84-3.19-2.85-4.73-.53-.87-1.1-1.72-1.7-2.61a1.56,1.56,0,0,0-.33-.41c-1.16-1.77-2.4-3.41-3.71-5-.71-.88-1.39-1.75-2.14-2.61-1.63-1.93-3.31-3.8-5.13-5.6a4.08,4.08,0,0,0-.39-.43c-.14-.15-.28-.3-.43-.44l-.78-.76c-.26-.25-.51-.54-.78-.75-.9-.86-1.83-1.73-2.77-2.57-1.88-1.67-3.82-3.28-5.78-4.79a1.31,1.31,0,0,0-.27-.21c-1.36-1-2.69-2-4.12-3-1.23-.84-2.46-1.68-3.71-2.45A104.06,104.06,0,0,0,1252.4,655c-1.47,0-2.9.1-4.35.22-1.67.1-3.32.28-5,.49a9.26,9.26,0,0,0-1.39.17c-2.19.29-4.36.65-6.55,1.08a106.85,106.85,0,0,0-10.92,2.83s0,0,0,0c-.75.23-1.53.42-2.3.58-.27,0-.58.1-.89.17a19.41,19.41,0,0,1-2.41.19,18.4,18.4,0,0,1-11.72-3.69c-.63-.5-1.22-1-1.8-1.57v0a21.16,21.16,0,0,1-6.31-15.2,21.79,21.79,0,0,1,1.63-8.22,19.6,19.6,0,0,1,2-3.67,22.85,22.85,0,0,1,2.7-3.28l104.9-104.92Z"/><path class="cls-5" d="M1000,240.39a72.39,72.39,0,0,1,51.48,21.29l241.06,241.05,8.7-8.7a12.3,12.3,0,0,1,17.4,0L1068.89,244.28a97.51,97.51,0,0,0-137.81,0L681.33,494.06a12.25,12.25,0,0,1,8.72-3.59,12,12,0,0,1,8.68,3.6l8.7,8.7,241.05-241A72.36,72.36,0,0,1,1000,240.39Z"/><text class="cls-6" transform="translate(97.81 1656.16)"><tspan class="cls-7">K</tspan><tspan x="78.34" y="0">OMANDOO </tspan><tspan class="cls-8" x="920.34" y="0">C</tspan><tspan x="1016.57" y="0">OMMUNITY</tspan><tspan x="555.97" y="163.44">ALLIANCE</tspan></text></svg>