<svg id="Layer_2" data-name="Layer 2" xmlns="http://www.w3.org/2000/svg" viewBox="0 0 4795.76 1193.82"><defs><style>.cls-1{fill:#cbe5f8;}.cls-2{fill:#2a333f;}.cls-3{fill:#ed1c24;}.cls-4{fill:#9b1c22;}.cls-5,.cls-6{fill:#29333f;}.cls-6{font-size:397.38px;font-family:MvRADR, Mv RADIO Round;}</style></defs><path class="cls-1" d="M4493,922.62l-8.68-8.69-94.91-94.85a11,11,0,0,0-8.05-3.36h0a11.29,11.29,0,0,0-8.13,3.33,8.85,8.85,0,0,0-1.9,9.1,113.45,113.45,0,0,1-108,147.79h-1.76a112.59,112.59,0,0,1-80.84-35.63c-40.25-42.72-41-110.23-1.66-153.71a113.77,113.77,0,0,1,118.63-32.12,8.84,8.84,0,0,0,9-1.87,11.55,11.55,0,0,0,3.38-8.16,11.42,11.42,0,0,0-3.38-8.11L4198.83,628.47,4101,726.29a55.55,55.55,0,0,1-39.6,16.44h-.23c-1.13,0-2.3-.05-3.42-.11h-.26c-2.16-.17-3.85-.37-5.46-.64A55,55,0,0,1,4036.6,737c-1.12-.53-2.18-1.12-3.17-1.68l-2.35-1.34-.12-.21-.65-.42c-1.22-.79-2.47-1.7-3.79-2.75-1-.77-1.9-1.56-2.82-2.39l-1.54-.41-1.5-2.56a53.42,53.42,0,0,1-5.72-7.19c-.69-1.06-1.24-2-1.73-2.85a15.27,15.27,0,0,1-1-1.76c-.43-.82-.84-1.64-1.21-2.45-.77-1.71-1.3-3-1.75-4.27-.56-1.55-1-3-1.32-4.31s-.63-2.52-.83-3.65a48.82,48.82,0,0,1-.81-6.86l-.07-1.78c-.05-1.32-.05-2.52,0-3.72v-.17c.11-1.79.25-3.3.44-4.73.07-.65.16-1.2.23-1.62.31-1.82.69-3.59,1.16-5.31.21-.81.48-1.65.73-2.44a68.58,68.58,0,0,0-8-58.58c-.82-1.23-1.57-2.29-2.24-3.19-1-1.29-1.78-2.3-2.58-3.23l-.32-.4c-.3-.39-.76-.89-1.24-1.41l-.23-.26c-.41-.47-.91-1-1.44-1.52-1.23-1.28-2.34-2.36-3.42-3.34q-.3-.26-.6-.54s0,0,0,0l-.08-.06c-.58-.5-1.15-1-1.68-1.46a70.74,70.74,0,0,0-9.73-6.71c-.94-.54-1.94-1.06-3-1.6l-2-1a67.26,67.26,0,0,0-30-6.4c-1.17,0-2,0-2.84.1h-.18c-.79.05-1.55.1-2.3.17l-.23,0c-.33,0-.67,0-.93.09l-.13,0-.36,0-1.91.35-.31-.08-.36.06-.31,0c-.69.11-1.44.23-2.19.4l-.29.05a61.3,61.3,0,0,0-8.84,2.4l-.4.14c-.51.16-1.05.35-1.61.56l-.51.19-.13,0-.05.09-2.95,1.16-.14.06-1.61.73-.53.27-.47.23a29.56,29.56,0,0,0-2.71,1.39l-.32.17c-.82.44-1.68.94-2.87,1.68l-2.27,1.49a10.47,10.47,0,0,0-1.1.77l-.46.35a63.11,63.11,0,0,0-6.94,5.72,66.86,66.86,0,0,0-5.7,6.07l-.11.13c-.79.92-1.62,2-2.6,3.3-.46.62-.87,1.18-1.21,1.69l-.08.12c-.41.6-.82,1.23-1.2,1.84l0,.08a62.57,62.57,0,0,0-4.29,7.91l0,0-.24.89-.54.82-.2.44-.18.47c-.24.56-.48,1.13-.69,1.7l-.44,1.22c-.22.63-.47,1.3-.67,1.94a68.58,68.58,0,0,0-3.37,20.43c0,1,0,2.1,0,3.09l0,.45c0,.7.07,1.53.14,2.4l0,.65a3.71,3.71,0,0,0,0,.6l.11.6,0,.61a15.93,15.93,0,0,0,.24,1.87l.06.42a61.73,61.73,0,0,0,2.91,12.27l.09.27c.17.54.42,1.18.68,1.87l.27.78a14.23,14.23,0,0,0,.83,2l.23.45.18.47a21.91,21.91,0,0,0,1.13,2.41l.25.53c.36.79.8,1.63,1.34,2.56l.14.26c.64,1.18,1.34,2.35,2.07,3.47l.17.26c.35.57.64,1,.87,1.3l.38.54c.35.53.72,1,1.12,1.59l.15.21c.46.65,1,1.3,1.48,1.92l.18.21c.78,1,1.66,2,2.6,3,.79.88,1.48,1.59,2.1,2.18l1.72,1.69c.41.38.8.77,1.24,1.14l.12.11c.42.37.84.75,1.27,1.09l.23.2c.81.7,1.57,1.31,2.31,1.87l.23.18c.58.47,1.12.87,1.65,1.22l2.06,1.45c1.43.95,2.88,1.83,4.32,2.62l.11.06a67.54,67.54,0,0,0,39.88,8.53h.17c1.37-.11,2.84-.3,4.75-.63l.11,0c1.81-.29,3.24-.58,4.5-.9l.27-.07c.9-.2,1.84-.45,2.84-.73l2.12-.65.77-.24,1.88-.59.14,0c1.14-.29,2.29-.55,3.43-.77l.14,0c.76-.14,1.56-.26,2.31-.37a57.68,57.68,0,0,1,6.4-.58h.2a52.79,52.79,0,0,1,38.74,15.44l1,1.07.95,1,.14.16a61,61,0,0,1,4.8,6.18c.55.78,1.09,1.64,1.66,2.62.75,1.24,1.43,2.48,2.08,3.79a55.07,55.07,0,0,1,5.7,22c0,.85.07,1.7.08,2.55v.27a55.67,55.67,0,0,1-16.43,39.7L3913.37,913.94l-8.7,8.72a22.18,22.18,0,0,1-11.35,6.06l236.6,236.59a97.55,97.55,0,0,0,137.83,0l236.58-236.59A22.13,22.13,0,0,1,4493,922.62Z"/><path class="cls-2" d="M3886.3,737.6a102.56,102.56,0,0,0,68.21,16.53A104.5,104.5,0,0,1,3886.3,737.6Zm159.75-35.84s.06.06.09.07c-.28-.3-.57-.59-.85-.92A8,8,0,0,0,4046.05,701.76Zm-2.9-3.87a17.57,17.57,0,0,1-1.4-3.32A19.44,19.44,0,0,0,4043.15,697.89Zm-1.75-4.47a23.33,23.33,0,0,1-.51-3.67A17.45,17.45,0,0,0,4041.4,693.42Zm-.51-3.67a22.42,22.42,0,0,1,.14-3.64A15.86,15.86,0,0,0,4040.89,689.75Zm.17-3.74a20.25,20.25,0,0,1,.74-3.3A17.36,17.36,0,0,0,4041.06,686Zm-22.74-10.79c-.21.64-.39,1.32-.56,2,.17-.64.39-1.31.59-1.95a78.73,78.73,0,0,0-9.17-67.15A79.74,79.74,0,0,1,4018.32,675.22Zm-178.47-25.39a101.36,101.36,0,0,0,2.05,21.39c-.16-.8-.31-1.6-.44-2.43a99.91,99.91,0,0,1-1.4-20.72,23.45,23.45,0,0,1,.13-2.77c0-1,.1-2,.19-3s.19-1.92.3-2.87.19-1.81.33-2.72.23-1.54.36-2.31c.15-1.12.39-2.26.62-3.4s.46-2.24.72-3.37a102.22,102.22,0,0,1,12.78-31A102,102,0,0,0,3839.85,649.83Zm2.29,22.68c.09.49.22,1,.3,1.46s.26,1.09.4,1.64c-.24-.92-.42-1.85-.62-2.78-.12-.54-.22-1.08-.32-1.61,0,.2.06.4.1.59S3842.1,672.28,3842.14,672.51Zm100-100c-1.17,0-2.31,0-3.46.13-.89.06-1.78.11-2.68.2a19.47,19.47,0,0,0-2.17.25.45.45,0,0,0-.3,0c-.87.1-1.73.19-2.61.36s-1.87.3-2.83.51-1.9.44-2.8.67a80,80,0,0,1,51.38,5.25A77.52,77.52,0,0,0,3942.15,572.53ZM3886.3,737.6a102.56,102.56,0,0,0,68.21,16.53A104.5,104.5,0,0,1,3886.3,737.6Zm159.75-35.84s.06.06.09.07c-.28-.3-.57-.59-.85-.92A8,8,0,0,0,4046.05,701.76Zm-2.9-3.87a17.57,17.57,0,0,1-1.4-3.32A19.44,19.44,0,0,0,4043.15,697.89Zm-1.75-4.47a23.33,23.33,0,0,1-.51-3.67A17.45,17.45,0,0,0,4041.4,693.42Zm-.51-3.67a22.42,22.42,0,0,1,.14-3.64A15.86,15.86,0,0,0,4040.89,689.75Zm.17-3.74a20.25,20.25,0,0,1,.74-3.3A17.36,17.36,0,0,0,4041.06,686Zm-201.21-36.18a101.36,101.36,0,0,0,2.05,21.39c-.16-.8-.31-1.6-.44-2.43a99.91,99.91,0,0,1-1.4-20.72,23.45,23.45,0,0,1,.13-2.77c0-1,.1-2,.19-3s.19-1.92.3-2.87.19-1.81.33-2.72.23-1.54.36-2.31c.15-1.12.39-2.26.62-3.4s.46-2.24.72-3.37a102.22,102.22,0,0,1,12.78-31A102,102,0,0,0,3839.85,649.83Zm2.29,22.68c.09.49.22,1,.3,1.46s.26,1.09.4,1.64c-.24-.92-.42-1.85-.62-2.78-.12-.54-.22-1.08-.32-1.61,0,.2.06.4.1.59S3842.1,672.28,3842.14,672.51Z"/><path class="cls-3" d="M3842.84,675.61c-.27-1-.47-2.06-.7-3.1.09.49.22,1,.3,1.46S3842.7,675.06,3842.84,675.61Z"/><path class="cls-4" d="M4500.07,278.26l-8.7,8.69-104.9,104.93a45.74,45.74,0,0,0-13.5,32.61c0,1.53.08,3.08.23,4.57a45.65,45.65,0,0,0,4.57,15.94c.22.42.41.8.63,1.19a45.87,45.87,0,0,0,8,10.81s0,0,0,.09a43.44,43.44,0,0,0,44,10.38,82.33,82.33,0,0,1,8.26-2.16.13.13,0,0,0,.08,0,78.26,78.26,0,0,1,63.6,14.81c.76.57,1.51,1.17,2.22,1.77s1.49,1.23,2.19,1.89,1.41,1.25,2.1,2c.41.36.79.72,1.16,1.11,0,0,.08.09.11.14.92.9,1.8,1.83,2.65,2.75,1,1.14,2,2.28,2.93,3.44.72.85,1.4,1.72,2,2.62s1.19,1.67,1.77,2.51c.37.5.73,1.07,1.09,1.64.91,1.37,1.76,2.8,2.54,4.25.64,1.12,1.25,2.26,1.77,3.42a32.16,32.16,0,0,1,1.62,3.49,24.88,24.88,0,0,1,1.45,3.56c.31.85.64,1.67.88,2.53a13.06,13.06,0,0,1,.47,1.51,75.3,75.3,0,0,1,3.76,25,77.11,77.11,0,0,1-6.43,30,32.52,32.52,0,0,1-1.57,3.4c-.3.72-.68,1.46-1,2.16a67.55,67.55,0,0,1-3.57,6.14c-.63,1-1.29,1.95-2,2.93-.3.46-.64.88-1,1.3-1.08,1.46-2.23,2.9-3.4,4.26-.59.72-1.2,1.39-1.82,2.06-1.23,1.35-2.54,2.67-3.9,4a75.81,75.81,0,0,1-8,6.62,20.26,20.26,0,0,1-2.11,1.47l-2.12,1.4c-1.18.74-2.35,1.44-3.59,2.1s-2.34,1.26-3.54,1.81a31.55,31.55,0,0,1-3.24,1.5l-.17.1a34.09,34.09,0,0,1-3.51,1.39,76.35,76.35,0,0,1-26.66,5.09,77.76,77.76,0,0,1-38.35-9.33l-2.25-1.25a81.81,81.81,0,0,1-10.78-7.48c-.53-.47-1.09-1-1.65-1.43-.27-.21-.5-.46-.77-.67-1.38-1.25-2.7-2.55-4-3.88-.63-.64-1.26-1.31-1.87-2s-1.24-1.35-1.81-2.09c-1-1.13-1.89-2.32-2.78-3.47s-1.62-2.25-2.41-3.38-1.39-2.15-2-3.27c-.58-1-1.12-1.94-1.65-2.92a77.75,77.75,0,0,1-8.77-48.7c.17-1.3.4-2.55.63-3.83a74.72,74.72,0,0,1,2.27-9,44,44,0,0,0,.74-24.63,42,42,0,0,0-2.89-7.83,38.84,38.84,0,0,0-2.84-4.91c-.85-1.29-1.79-2.56-2.8-3.81-.84-1-1.67-1.91-2.6-2.81,0,0-.05-.05-.08-.1a45.55,45.55,0,0,0-23.4-12.53,49.76,49.76,0,0,0-6-.77c-1-.1-2-.11-3.1-.11a45.72,45.72,0,0,0-32.59,13.48l-104.9,104.93L4093.94,474.64a21.52,21.52,0,0,1,0-30.4.1.1,0,0,1,.05-.06,19.57,19.57,0,0,1,1.85-1.58c.32-.24.64-.49,1-.72a11.33,11.33,0,0,1,1-.6,19,19,0,0,1,15.19-1.39,103.73,103.73,0,0,0,108.29-29.38c35.83-39.7,35.07-101.28-1.7-140.15a103.4,103.4,0,0,0-173.71,102.36,18.89,18.89,0,0,1-4.33,19.16.18.18,0,0,0-.09.08,21.52,21.52,0,0,1-30.31-.07L3906.26,287l-8.7-8.7a12,12,0,0,0-8.68-3.6,12.24,12.24,0,0,0-8.72,3.6L3630.41,528a97.49,97.49,0,0,0,0,137.81L3880.19,915.6a12.34,12.34,0,0,0,17.4,0l8.71-8.73L4011.19,802a45.74,45.74,0,0,0,13.5-32.6c0-.77,0-1.54-.07-2.32A45.11,45.11,0,0,0,4020,749c-.54-1.1-1.11-2.12-1.74-3.16a23,23,0,0,0-1.28-2,49.21,49.21,0,0,0-4.05-5.24c-.54-.58-1-1.12-1.6-1.66a.76.76,0,0,0-.11-.14,43,43,0,0,0-31.45-12.51,46.59,46.59,0,0,0-5.37.49c-.64.09-1.33.19-2,.31a53.2,53.2,0,0,0-5.19,1.3s0,0,0,0c-1.87.59-3.72,1.11-5.63,1.55s-3.63.81-5.42,1.09-3.77.6-5.66.75a77.82,77.82,0,0,1-45.77-9.79,72.9,72.9,0,0,1-7.13-4.5l0,0c-.8-.54-1.56-1.11-2.31-1.71-1-.73-1.9-1.49-2.81-2.28-.54-.44-1.07-.91-1.6-1.38-.74-.63-1.4-1.28-2.1-1.94-.41-.37-.79-.72-1.16-1.11a.76.76,0,0,0-.11-.14c-.89-.86-1.77-1.79-2.65-2.75-1-1.14-2-2.29-2.93-3.45-.72-.84-1.4-1.72-2-2.61-.51-.69-1-1.36-1.45-2.07s-.95-1.34-1.41-2.09c-.9-1.37-1.76-2.8-2.54-4.24-.64-1.12-1.25-2.27-1.77-3.43a30.5,30.5,0,0,1-1.62-3.49,23.6,23.6,0,0,1-1.44-3.55c-.32-.85-.67-1.75-.94-2.62a72,72,0,0,1-3.39-14.27,27.37,27.37,0,0,1-.37-3,15,15,0,0,1-.2-2.24c-.08-1.05-.17-2.09-.17-3.15-.07-1.25-.07-2.49-.05-3.76a78.64,78.64,0,0,1,3.84-23.29c.24-.77.53-1.57.8-2.33.15-.4.3-.83.44-1.23.27-.73.57-1.45.87-2.17.15-.4.32-.79.5-1.18a4.34,4.34,0,0,1,.41-.84,4.5,4.5,0,0,1,.38-.88,72.35,72.35,0,0,1,5-9.15c.45-.72.94-1.46,1.42-2.17s1-1.44,1.52-2.14c1-1.31,2-2.6,3-3.85a77.27,77.27,0,0,1,6.52-7,72.61,72.61,0,0,1,8-6.62,20.65,20.65,0,0,1,2.1-1.48l2.12-1.4c1.18-.73,2.36-1.44,3.59-2.09s2.34-1.27,3.54-1.82,2.14-1.06,3.24-1.5c.06-.09.11-.12.18-.1a36.35,36.35,0,0,1,3.5-1.39c.77-.3,1.54-.57,2.29-.8A69.24,69.24,0,0,1,3928.1,574c1-.21,1.88-.37,2.83-.51s1.74-.26,2.61-.36a.45.45,0,0,1,.3,0,19.47,19.47,0,0,1,2.17-.25c.9-.09,1.79-.14,2.68-.2,1.15-.09,2.29-.11,3.46-.13a77.52,77.52,0,0,1,34.53,7.4l2.06,1c1.19.61,2.37,1.22,3.54,1.89a80.87,80.87,0,0,1,11.24,7.78c.53.47,1.09.95,1.66,1.43.26.22.49.46.76.68,1.38,1.24,2.7,2.54,4,3.87.63.64,1.25,1.28,1.87,2s1.23,1.35,1.8,2.09c1.06,1.23,2,2.47,3,3.75s1.75,2.44,2.58,3.68a78.73,78.73,0,0,1,9.17,67.15c-.2.64-.42,1.31-.59,1.95-.39,1.43-.7,2.87-1,4.34-.06.38-.13.76-.16,1.16-.2,1.4-.31,2.79-.4,4.19,0,1,0,1.91,0,2.87,0,.59.05,1.18.07,1.77A38,38,0,0,0,4017,697c.15.91.38,1.85.63,2.79.33,1.22.67,2.4,1.09,3.57s.9,2.31,1.41,3.43c.34.75.72,1.51,1.11,2.23a7.54,7.54,0,0,0,.59,1.07c.44.81.94,1.63,1.46,2.43a42.76,42.76,0,0,0,5.4,6.61s0,.05.06.06.05,0,.08.09a50,50,0,0,0,3.94,3.5c1,.76,2,1.5,3,2.19.83.55,1.67,1.1,2.52,1.59,0,0,0,0,.06,0,.86.48,1.74,1,2.61,1.39a44.59,44.59,0,0,0,12.75,4.07c1.5.25,3,.41,4.55.53,1,.05,2.06.07,3.07.09a45.66,45.66,0,0,0,32.6-13.51l104.89-104.89,114.94,114.93a21.47,21.47,0,0,1,0,30.4,18.77,18.77,0,0,1-19.15,4.34,103.77,103.77,0,0,0-108.19,29.3c-35.85,39.65-35.18,101.18,1.52,140.14a103.43,103.43,0,0,0,173.83-102.26,18.81,18.81,0,0,1,4.34-19.19,21.49,21.49,0,0,1,30.36,0l94.91,94.85,8.7,8.71a12.29,12.29,0,0,0,17.4,0l249.71-249.73a96.73,96.73,0,0,0,25.25-43.55,97.85,97.85,0,0,0,3.3-25.36A96.64,96.64,0,0,0,4767.22,528L4517.47,278.26A12.3,12.3,0,0,0,4500.07,278.26ZM4076.54,701.82a21.51,21.51,0,0,1-30.37,0l0,0s-.06-.06-.09-.07a8,8,0,0,1-.76-.85,20.61,20.61,0,0,1-2.14-3,17.57,17.57,0,0,1-1.4-3.32c-.12-.36-.24-.75-.35-1.15a17.45,17.45,0,0,1-.51-3.67,15.86,15.86,0,0,1,.14-3.64.07.07,0,0,0,0-.1,17.36,17.36,0,0,1,.74-3.3c.86-2.68,1.59-5.4,2.2-8.11.23-1,.45-1.92.63-2.89s.35-1.83.53-2.77a104.34,104.34,0,0,0-17.08-76.77c-1.08-1.53-2.2-3.06-3.37-4.54-.81-1.06-1.66-2.09-2.51-3.11-.7-.81-1.39-1.61-2.1-2.39s-1.4-1.54-2.12-2.27c-.92-1-1.91-2-2.89-2.93s-1.77-1.67-2.68-2.5c-.76-.68-1.56-1.37-2.33-2s-1.6-1.34-2.39-1.95-1.62-1.28-2.44-1.9c-1.63-1.24-3.28-2.41-5-3.52a104.17,104.17,0,0,0-109.92-2.54c-.82.47-1.6.95-2.4,1.46l-2.38,1.55c-1.86,1.25-3.71,2.58-5.5,4-.69.55-1.34,1.06-2,1.62-.42.32-.79.62-1.17,1l-1.84,1.54c-.95.84-1.87,1.69-2.8,2.57-.4.4-.82.76-1.22,1.16-.73.68-1.43,1.4-2.14,2.16-.6.6-1.17,1.22-1.73,1.83-.83.91-1.61,1.79-2.4,2.71-.63.7-1.22,1.42-1.81,2.13-.92,1.14-1.81,2.28-2.67,3.44-.56.72-1.08,1.45-1.61,2.22a13.44,13.44,0,0,0-.78,1.14c-.83,1.2-1.64,2.44-2.41,3.69a102.22,102.22,0,0,0-12.78,31c-.26,1.13-.52,2.22-.72,3.37s-.47,2.28-.62,3.4c-.13.77-.27,1.54-.36,2.31s-.24,1.83-.33,2.72-.22,1.9-.3,2.87-.14,2-.19,3a23.45,23.45,0,0,0-.13,2.77,99.91,99.91,0,0,0,1.4,20.72c.17,1,.34,2,.54,3,.05.24.1.47.14.7.23,1,.43,2.08.7,3.1.18.7.35,1.44.52,2.14s.33,1.22.5,1.81c.24.86.49,1.69.74,2.53.31,1,.65,2.06,1,3.1.45,1.32.94,2.62,1.43,3.92.58,1.5,1.2,3,1.83,4.42s1.34,2.91,2.05,4.33,1.58,3,2.42,4.55,1.84,3.18,2.85,4.73a.62.62,0,0,0,.13.18c.42.62.8,1.23,1.22,1.82.64,1,1.3,2,2,2.87.83,1.13,1.65,2.26,2.53,3.33.57.74,1.14,1.44,1.75,2.18.88,1,1.77,2.08,2.7,3.09s2.15,2.32,3.27,3.43c.11.13.26.25.37.39,2.3,2.29,4.67,4.45,7.14,6.5l2.55,2c1.1.91,2.26,1.77,3.42,2.59s2,1.38,3.05,2.05a104.5,104.5,0,0,0,68.21,16.53,0,0,0,0,1,0,0c1.84-.19,3.65-.44,5.48-.75a.08.08,0,0,0,.08,0c1.8-.32,3.59-.64,5.37-1,3.06-.67,6.12-1.49,9.15-2.46a19.05,19.05,0,0,1,16.34,2,13,13,0,0,1,1.84,1.41c.3.26.59.52.88.82,0,0,.06,0,.09.06a21.47,21.47,0,0,1,0,30.4L3888.9,889.46l-241.06-241a72.84,72.84,0,0,1,0-103l241-241.06,104.92,104.9a46.19,46.19,0,0,0,65.21,0c.05-.06.09-.08.15-.14a43.38,43.38,0,0,0,10.23-43.9,78.79,78.79,0,0,1,132.37-78c28,29.65,28.6,76.55,1.32,106.78a79.08,79.08,0,0,1-82.52,22.38,43.34,43.34,0,0,0-44,10.41s-.05.06-.09.09a46.11,46.11,0,0,0,.1,65.12l104.89,104.88Zm673.28-156.41a72.86,72.86,0,0,1,0,103l-241,241-94.9-94.89a46.1,46.1,0,0,0-65.2,0,43.45,43.45,0,0,0-10.38,44,78.8,78.8,0,0,1-132.47,77.91c-28-29.66-28.45-76.54-1.15-106.72a79.13,79.13,0,0,1,82.48-22.36,43.24,43.24,0,0,0,44-10.38,46.16,46.16,0,0,0,0-65.21l-115-114.93L4321.13,492a21.51,21.51,0,0,1,30.39,0,.16.16,0,0,1,.06.05A17,17,0,0,1,4355,497a15.74,15.74,0,0,1,.9,2.21,6.38,6.38,0,0,1,.33,1.21,16.31,16.31,0,0,1,.52,3.64,19.63,19.63,0,0,1-.92,7.07c-.9,2.85-1.68,5.74-2.32,8.66-.23,1-.46,2-.65,3-.21,1.19-.42,2.37-.62,3.55s-.34,2.35-.48,3.55a104.49,104.49,0,0,0-.77,10.61c0,1.45,0,2.91,0,4.36,0,2.53.2,5.08.44,7.59.09,1,.21,2.06.34,3.07s.26,1.89.41,2.84a105,105,0,0,0,15.28,40.25c.69,1.09,1.4,2.12,2.13,3.19s1.73,2.36,2.62,3.54,2,2.46,3,3.68c1.43,1.73,2.95,3.41,4.51,5.07a5.45,5.45,0,0,1,.63.64c.74.74,1.49,1.49,2.25,2.2s1.73,1.67,2.64,2.49,1.56,1.37,2.33,2.05,1.6,1.34,2.39,1.95,1.62,1.27,2.44,1.89q2.44,1.86,5,3.52a104.21,104.21,0,0,0,112.32,1.08l2.38-1.55c1.86-1.25,3.71-2.57,5.5-4,.69-.54,1.34-1.06,2-1.61.41-.33.78-.63,1.16-1l1.84-1.55c.95-.84,1.87-1.68,2.8-2.56.4-.41.82-.76,1.22-1.17.73-.68,1.43-1.4,2.14-2.15s1.17-1.22,1.73-1.83c.83-.91,1.61-1.79,2.4-2.71.63-.71,1.22-1.42,1.81-2.14,1.13-1.37,2.2-2.76,3.19-4.17,1.16-1.61,2.3-3.28,3.37-4.95a1.1,1.1,0,0,0,.14-.26c.69-1.05,1.37-2.11,2-3.18a9.46,9.46,0,0,0,.54-.91c.54-1,1.06-1.91,1.56-2.83a103,103,0,0,0,8.61-21.83,104.8,104.8,0,0,0-1.91-60.54c-.41-1.31-.9-2.61-1.4-3.87s-1.09-2.73-1.67-4.09c-.72-1.65-1.49-3.28-2.26-4.87a.84.84,0,0,0-.13-.21c-.73-1.47-1.51-2.92-2.32-4.38a3.79,3.79,0,0,1-.2-.34c-.89-1.58-1.84-3.19-2.85-4.73-.53-.87-1.1-1.72-1.7-2.61a1.56,1.56,0,0,0-.33-.41c-1.16-1.77-2.4-3.41-3.71-5-.71-.88-1.39-1.75-2.14-2.61-1.63-1.93-3.31-3.8-5.13-5.6a4.08,4.08,0,0,0-.39-.43l-.43-.44-.78-.76c-.26-.25-.51-.53-.78-.75-.9-.86-1.83-1.73-2.77-2.56-1.88-1.67-3.82-3.28-5.78-4.79a1.09,1.09,0,0,0-.27-.22c-1.36-1-2.69-2-4.12-3-1.23-.84-2.46-1.68-3.71-2.45a104.06,104.06,0,0,0-58.08-15.75c-1.47.05-2.9.1-4.35.22-1.67.1-3.32.28-5,.49a9.23,9.23,0,0,0-1.4.17c-2.19.29-4.36.65-6.55,1.09A101.9,101.9,0,0,0,4423,444a0,0,0,0,0,0,0,22.76,22.76,0,0,1-2.3.58c-.27,0-.58.11-.88.17a19.72,19.72,0,0,1-2.42.19,18.4,18.4,0,0,1-11.72-3.69c-.63-.49-1.22-1-1.8-1.57v0a21.08,21.08,0,0,1-6.3-15.19,21.6,21.6,0,0,1,1.62-8.23,19.51,19.51,0,0,1,2-3.66,21.81,21.81,0,0,1,2.7-3.28l104.9-104.93Z"/><path class="cls-5" d="M4198.83,24.61a72.4,72.4,0,0,1,51.49,21.3l241.05,241,8.7-8.69a12.3,12.3,0,0,1,17.4,0L4267.72,28.51a97.49,97.49,0,0,0-137.81,0L3880.16,278.29a12.24,12.24,0,0,1,8.72-3.6,12,12,0,0,1,8.68,3.6l8.7,8.7,241.05-241A72.36,72.36,0,0,1,4198.83,24.61Z"/><text class="cls-6" transform="translate(0 692.7)">ްސްނެއަލެއ ީޓިނުއިމޮކ ޫޑްނަމޮކ</text></svg>