<svg id="Layer_2" data-name="Layer 2" xmlns="http://www.w3.org/2000/svg" viewBox="0 0 4795.76 1193.82"><defs><style>.cls-1{fill:#cbe5f8;}.cls-2{fill:#2a333f;}.cls-3{fill:#ed1c24;}.cls-4{fill:#9b1c22;}.cls-5{fill:#29333f;}</style></defs><path class="cls-1" d="M4493,922.62l-8.68-8.69-94.91-94.85a11,11,0,0,0-8.05-3.36h0a11.29,11.29,0,0,0-8.13,3.33,8.85,8.85,0,0,0-1.9,9.1,113.45,113.45,0,0,1-108,147.79h-1.76a112.59,112.59,0,0,1-80.84-35.63c-40.25-42.72-41-110.23-1.66-153.71a113.77,113.77,0,0,1,118.63-32.12,8.84,8.84,0,0,0,9-1.87,11.55,11.55,0,0,0,3.38-8.16,11.42,11.42,0,0,0-3.38-8.11L4198.83,628.47,4101,726.29a55.55,55.55,0,0,1-39.6,16.44h-.23c-1.13,0-2.3-.05-3.42-.11h-.26c-2.16-.17-3.85-.37-5.46-.64A55,55,0,0,1,4036.6,737c-1.12-.53-2.18-1.12-3.17-1.68l-2.35-1.34-.12-.21-.65-.42c-1.22-.79-2.47-1.7-3.79-2.75-1-.77-1.9-1.56-2.82-2.39l-1.54-.41-1.5-2.56a53.42,53.42,0,0,1-5.72-7.19c-.69-1.06-1.24-2-1.73-2.85a15.27,15.27,0,0,1-1-1.76c-.43-.82-.84-1.64-1.21-2.45-.77-1.71-1.3-3-1.75-4.27-.56-1.55-1-3-1.32-4.31s-.63-2.52-.83-3.65a48.82,48.82,0,0,1-.81-6.86l-.07-1.78c-.05-1.32-.05-2.52,0-3.72v-.17c.11-1.79.25-3.3.44-4.73.07-.65.16-1.2.23-1.62.31-1.82.69-3.59,1.16-5.31.21-.81.48-1.65.73-2.44a68.58,68.58,0,0,0-8-58.58c-.82-1.23-1.57-2.29-2.24-3.19-1-1.29-1.78-2.3-2.58-3.23l-.32-.4c-.3-.39-.76-.89-1.24-1.41l-.23-.26c-.41-.47-.91-1-1.44-1.52-1.23-1.28-2.34-2.36-3.42-3.34q-.3-.26-.6-.54s0,0,0,0l-.08-.06c-.58-.5-1.15-1-1.68-1.46a70.74,70.74,0,0,0-9.73-6.71c-.94-.54-1.94-1.06-3-1.6l-2-1a67.26,67.26,0,0,0-30-6.4c-1.17,0-2,0-2.84.1h-.18c-.79.05-1.55.1-2.3.17l-.23,0c-.33,0-.67,0-.93.09l-.13,0-.36,0-1.91.35-.31-.08-.36.06-.31,0c-.69.11-1.44.23-2.19.4l-.29.05a61.3,61.3,0,0,0-8.84,2.4l-.4.14c-.51.16-1.05.35-1.61.56l-.51.19-.13,0-.05.09-2.95,1.16-.14.06-1.61.73-.53.27-.47.23a29.56,29.56,0,0,0-2.71,1.39l-.32.17c-.82.44-1.68.94-2.87,1.68l-2.27,1.49a10.47,10.47,0,0,0-1.1.77l-.46.35a63.11,63.11,0,0,0-6.94,5.72,66.86,66.86,0,0,0-5.7,6.07l-.11.13c-.79.92-1.62,2-2.6,3.3-.46.62-.87,1.18-1.21,1.69l-.08.12c-.41.6-.82,1.23-1.2,1.84l0,.08a62.57,62.57,0,0,0-4.29,7.91l0,0-.24.89-.54.82-.2.44-.18.47c-.24.56-.48,1.13-.69,1.7l-.44,1.22c-.22.63-.47,1.3-.67,1.94a68.58,68.58,0,0,0-3.37,20.43c0,1,0,2.1,0,3.09l0,.45c0,.7.07,1.53.14,2.4l0,.65a3.71,3.71,0,0,0,0,.6l.11.6,0,.61a15.93,15.93,0,0,0,.24,1.87l.06.42a61.73,61.73,0,0,0,2.91,12.27l.09.27c.17.54.42,1.18.68,1.87l.27.78a14.23,14.23,0,0,0,.83,2l.23.45.18.47a21.91,21.91,0,0,0,1.13,2.41l.25.53c.36.79.8,1.63,1.34,2.56l.14.26c.64,1.18,1.34,2.35,2.07,3.47l.17.26c.35.57.64,1,.87,1.3l.38.54c.35.53.72,1,1.12,1.59l.15.21c.46.65,1,1.3,1.48,1.92l.18.21c.78,1,1.66,2,2.6,3,.79.88,1.48,1.59,2.1,2.18l1.72,1.69c.41.38.8.77,1.24,1.14l.12.11c.42.37.84.75,1.27,1.09l.23.2c.81.7,1.57,1.31,2.31,1.87l.23.18c.58.47,1.12.87,1.65,1.22l2.06,1.45c1.43.95,2.88,1.83,4.32,2.62l.11.06a67.54,67.54,0,0,0,39.88,8.53h.17c1.37-.11,2.84-.3,4.75-.63l.11,0c1.81-.29,3.24-.58,4.5-.9l.27-.07c.9-.2,1.84-.45,2.84-.73l2.12-.65.77-.24,1.88-.59.14,0c1.14-.29,2.29-.55,3.43-.77l.14,0c.76-.14,1.56-.26,2.31-.37a57.68,57.68,0,0,1,6.4-.58h.2a52.79,52.79,0,0,1,38.74,15.44l1,1.07.95,1,.14.16a61,61,0,0,1,4.8,6.18c.55.78,1.09,1.64,1.66,2.62.75,1.24,1.43,2.48,2.08,3.79a55.07,55.07,0,0,1,5.7,22c0,.85.07,1.7.08,2.55v.27a55.67,55.67,0,0,1-16.43,39.7L3913.37,913.94l-8.7,8.72a22.18,22.18,0,0,1-11.35,6.06l236.6,236.59a97.55,97.55,0,0,0,137.83,0l236.58-236.59A22.13,22.13,0,0,1,4493,922.62Z"/><path class="cls-2" d="M3886.3,737.6a102.56,102.56,0,0,0,68.21,16.53A104.5,104.5,0,0,1,3886.3,737.6Zm159.75-35.84s.06.06.09.07c-.28-.3-.57-.59-.85-.92A8,8,0,0,0,4046.05,701.76Zm-2.9-3.87a17.57,17.57,0,0,1-1.4-3.32A19.44,19.44,0,0,0,4043.15,697.89Zm-1.75-4.47a23.33,23.33,0,0,1-.51-3.67A17.45,17.45,0,0,0,4041.4,693.42Zm-.51-3.67a22.42,22.42,0,0,1,.14-3.64A15.86,15.86,0,0,0,4040.89,689.75Zm.17-3.74a20.25,20.25,0,0,1,.74-3.3A17.36,17.36,0,0,0,4041.06,686Zm-22.74-10.79c-.21.64-.39,1.32-.56,2,.17-.64.39-1.31.59-1.95a78.73,78.73,0,0,0-9.17-67.15A79.74,79.74,0,0,1,4018.32,675.22Zm-178.47-25.39a101.36,101.36,0,0,0,2.05,21.39c-.16-.8-.31-1.6-.44-2.43a99.91,99.91,0,0,1-1.4-20.72,23.45,23.45,0,0,1,.13-2.77c0-1,.1-2,.19-3s.19-1.92.3-2.87.19-1.81.33-2.72.23-1.54.36-2.31c.15-1.12.39-2.26.62-3.4s.46-2.24.72-3.37a102.22,102.22,0,0,1,12.78-31A102,102,0,0,0,3839.85,649.83Zm2.29,22.68c.09.49.22,1,.3,1.46s.26,1.09.4,1.64c-.24-.92-.42-1.85-.62-2.78-.12-.54-.22-1.08-.32-1.61,0,.2.06.4.1.59S3842.1,672.28,3842.14,672.51Zm100-100c-1.17,0-2.31,0-3.46.13-.89.06-1.78.11-2.68.2a19.47,19.47,0,0,0-2.17.25.45.45,0,0,0-.3,0c-.87.1-1.73.19-2.61.36s-1.87.3-2.83.51-1.9.44-2.8.67a80,80,0,0,1,51.38,5.25A77.52,77.52,0,0,0,3942.15,572.53ZM3886.3,737.6a102.56,102.56,0,0,0,68.21,16.53A104.5,104.5,0,0,1,3886.3,737.6Zm159.75-35.84s.06.06.09.07c-.28-.3-.57-.59-.85-.92A8,8,0,0,0,4046.05,701.76Zm-2.9-3.87a17.57,17.57,0,0,1-1.4-3.32A19.44,19.44,0,0,0,4043.15,697.89Zm-1.75-4.47a23.33,23.33,0,0,1-.51-3.67A17.45,17.45,0,0,0,4041.4,693.42Zm-.51-3.67a22.42,22.42,0,0,1,.14-3.64A15.86,15.86,0,0,0,4040.89,689.75Zm.17-3.74a20.25,20.25,0,0,1,.74-3.3A17.36,17.36,0,0,0,4041.06,686Zm-201.21-36.18a101.36,101.36,0,0,0,2.05,21.39c-.16-.8-.31-1.6-.44-2.43a99.91,99.91,0,0,1-1.4-20.72,23.45,23.45,0,0,1,.13-2.77c0-1,.1-2,.19-3s.19-1.92.3-2.87.19-1.81.33-2.72.23-1.54.36-2.31c.15-1.12.39-2.26.62-3.4s.46-2.24.72-3.37a102.22,102.22,0,0,1,12.78-31A102,102,0,0,0,3839.85,649.83Zm2.29,22.68c.09.49.22,1,.3,1.46s.26,1.09.4,1.64c-.24-.92-.42-1.85-.62-2.78-.12-.54-.22-1.08-.32-1.61,0,.2.06.4.1.59S3842.1,672.28,3842.14,672.51Z"/><path class="cls-3" d="M3842.84,675.61c-.27-1-.47-2.06-.7-3.1.09.49.22,1,.3,1.46S3842.7,675.06,3842.84,675.61Z"/><path class="cls-4" d="M4500.07,278.26l-8.7,8.69-104.9,104.93a45.74,45.74,0,0,0-13.5,32.61c0,1.53.08,3.08.23,4.57a45.65,45.65,0,0,0,4.57,15.94c.22.42.41.8.63,1.19a45.87,45.87,0,0,0,8,10.81s0,0,0,.09a43.44,43.44,0,0,0,44,10.38,82.33,82.33,0,0,1,8.26-2.16.13.13,0,0,0,.08,0,78.26,78.26,0,0,1,63.6,14.81c.76.57,1.51,1.17,2.22,1.77s1.49,1.23,2.19,1.89,1.41,1.25,2.1,2c.41.36.79.72,1.16,1.11,0,0,.08.09.11.14.92.9,1.8,1.83,2.65,2.75,1,1.14,2,2.28,2.93,3.44.72.85,1.4,1.72,2,2.62s1.19,1.67,1.77,2.51c.37.5.73,1.07,1.09,1.64.91,1.37,1.76,2.8,2.54,4.25.64,1.12,1.25,2.26,1.77,3.42a32.16,32.16,0,0,1,1.62,3.49,24.88,24.88,0,0,1,1.45,3.56c.31.85.64,1.67.88,2.53a13.06,13.06,0,0,1,.47,1.51,75.3,75.3,0,0,1,3.76,25,77.11,77.11,0,0,1-6.43,30,32.52,32.52,0,0,1-1.57,3.4c-.3.72-.68,1.46-1,2.16a67.55,67.55,0,0,1-3.57,6.14c-.63,1-1.29,1.95-2,2.93-.3.46-.64.88-1,1.3-1.08,1.46-2.23,2.9-3.4,4.26-.59.72-1.2,1.39-1.82,2.06-1.23,1.35-2.54,2.67-3.9,4a75.81,75.81,0,0,1-8,6.62,20.26,20.26,0,0,1-2.11,1.47l-2.12,1.4c-1.18.74-2.35,1.44-3.59,2.1s-2.34,1.26-3.54,1.81a31.55,31.55,0,0,1-3.24,1.5l-.17.1a34.09,34.09,0,0,1-3.51,1.39,76.35,76.35,0,0,1-26.66,5.09,77.76,77.76,0,0,1-38.35-9.33l-2.25-1.25a81.81,81.81,0,0,1-10.78-7.48c-.53-.47-1.09-1-1.65-1.43-.27-.21-.5-.46-.77-.67-1.38-1.25-2.7-2.55-4-3.88-.63-.64-1.26-1.31-1.87-2s-1.24-1.35-1.81-2.09c-1-1.13-1.89-2.32-2.78-3.47s-1.62-2.25-2.41-3.38-1.39-2.15-2-3.27c-.58-1-1.12-1.94-1.65-2.92a77.75,77.75,0,0,1-8.77-48.7c.17-1.3.4-2.55.63-3.83a74.72,74.72,0,0,1,2.27-9,44,44,0,0,0,.74-24.63,42,42,0,0,0-2.89-7.83,38.84,38.84,0,0,0-2.84-4.91c-.85-1.29-1.79-2.56-2.8-3.81-.84-1-1.67-1.91-2.6-2.81,0,0-.05-.05-.08-.1a45.55,45.55,0,0,0-23.4-12.53,49.76,49.76,0,0,0-6-.77c-1-.1-2-.11-3.1-.11a45.72,45.72,0,0,0-32.59,13.48l-104.9,104.93L4093.94,474.64a21.52,21.52,0,0,1,0-30.4.1.1,0,0,1,.05-.06,19.57,19.57,0,0,1,1.85-1.58c.32-.24.64-.49,1-.72a11.33,11.33,0,0,1,1-.6,19,19,0,0,1,15.19-1.39,103.73,103.73,0,0,0,108.29-29.38c35.83-39.7,35.07-101.28-1.7-140.15a103.4,103.4,0,0,0-173.71,102.36,18.89,18.89,0,0,1-4.33,19.16.18.18,0,0,0-.09.08,21.52,21.52,0,0,1-30.31-.07L3906.26,287l-8.7-8.7a12,12,0,0,0-8.68-3.6,12.24,12.24,0,0,0-8.72,3.6L3630.41,528a97.49,97.49,0,0,0,0,137.81L3880.19,915.6a12.34,12.34,0,0,0,17.4,0l8.71-8.73L4011.19,802a45.74,45.74,0,0,0,13.5-32.6c0-.77,0-1.54-.07-2.32A45.11,45.11,0,0,0,4020,749c-.54-1.1-1.11-2.12-1.74-3.16a23,23,0,0,0-1.28-2,49.21,49.21,0,0,0-4.05-5.24c-.54-.58-1-1.12-1.6-1.66a.76.76,0,0,0-.11-.14,43,43,0,0,0-31.45-12.51,46.59,46.59,0,0,0-5.37.49c-.64.09-1.33.19-2,.31a53.2,53.2,0,0,0-5.19,1.3s0,0,0,0c-1.87.59-3.72,1.11-5.63,1.55s-3.63.81-5.42,1.09-3.77.6-5.66.75a77.82,77.82,0,0,1-45.77-9.79,72.9,72.9,0,0,1-7.13-4.5l0,0c-.8-.54-1.56-1.11-2.31-1.71-1-.73-1.9-1.49-2.81-2.28-.54-.44-1.07-.91-1.6-1.38-.74-.63-1.4-1.28-2.1-1.94-.41-.37-.79-.72-1.16-1.11a.76.76,0,0,0-.11-.14c-.89-.86-1.77-1.79-2.65-2.75-1-1.14-2-2.29-2.93-3.45-.72-.84-1.4-1.72-2-2.61-.51-.69-1-1.36-1.45-2.07s-.95-1.34-1.41-2.09c-.9-1.37-1.76-2.8-2.54-4.24-.64-1.12-1.25-2.27-1.77-3.43a30.5,30.5,0,0,1-1.62-3.49,23.6,23.6,0,0,1-1.44-3.55c-.32-.85-.67-1.75-.94-2.62a72,72,0,0,1-3.39-14.27,27.37,27.37,0,0,1-.37-3,15,15,0,0,1-.2-2.24c-.08-1.05-.17-2.09-.17-3.15-.07-1.25-.07-2.49-.05-3.76a78.64,78.64,0,0,1,3.84-23.29c.24-.77.53-1.57.8-2.33.15-.4.3-.83.44-1.23.27-.73.57-1.45.87-2.17.15-.4.32-.79.5-1.18a4.34,4.34,0,0,1,.41-.84,4.5,4.5,0,0,1,.38-.88,72.35,72.35,0,0,1,5-9.15c.45-.72.94-1.46,1.42-2.17s1-1.44,1.52-2.14c1-1.31,2-2.6,3-3.85a77.27,77.27,0,0,1,6.52-7,72.61,72.61,0,0,1,8-6.62,20.65,20.65,0,0,1,2.1-1.48l2.12-1.4c1.18-.73,2.36-1.44,3.59-2.09s2.34-1.27,3.54-1.82,2.14-1.06,3.24-1.5c.06-.09.11-.12.18-.1a36.35,36.35,0,0,1,3.5-1.39c.77-.3,1.54-.57,2.29-.8A69.24,69.24,0,0,1,3928.1,574c1-.21,1.88-.37,2.83-.51s1.74-.26,2.61-.36a.45.45,0,0,1,.3,0,19.47,19.47,0,0,1,2.17-.25c.9-.09,1.79-.14,2.68-.2,1.15-.09,2.29-.11,3.46-.13a77.52,77.52,0,0,1,34.53,7.4l2.06,1c1.19.61,2.37,1.22,3.54,1.89a80.87,80.87,0,0,1,11.24,7.78c.53.47,1.09.95,1.66,1.43.26.22.49.46.76.68,1.38,1.24,2.7,2.54,4,3.87.63.64,1.25,1.28,1.87,2s1.23,1.35,1.8,2.09c1.06,1.23,2,2.47,3,3.75s1.75,2.44,2.58,3.68a78.73,78.73,0,0,1,9.17,67.15c-.2.64-.42,1.31-.59,1.95-.39,1.43-.7,2.87-1,4.34-.06.38-.13.76-.16,1.16-.2,1.4-.31,2.79-.4,4.19,0,1,0,1.91,0,2.87,0,.59.05,1.18.07,1.77A38,38,0,0,0,4017,697c.15.91.38,1.85.63,2.79.33,1.22.67,2.4,1.09,3.57s.9,2.31,1.41,3.43c.34.75.72,1.51,1.11,2.23a7.54,7.54,0,0,0,.59,1.07c.44.81.94,1.63,1.46,2.43a42.76,42.76,0,0,0,5.4,6.61s0,.05.06.06.05,0,.08.09a50,50,0,0,0,3.94,3.5c1,.76,2,1.5,3,2.19.83.55,1.67,1.1,2.52,1.59,0,0,0,0,.06,0,.86.48,1.74,1,2.61,1.39a44.59,44.59,0,0,0,12.75,4.07c1.5.25,3,.41,4.55.53,1,.05,2.06.07,3.07.09a45.66,45.66,0,0,0,32.6-13.51l104.89-104.89,114.94,114.93a21.47,21.47,0,0,1,0,30.4,18.77,18.77,0,0,1-19.15,4.34,103.77,103.77,0,0,0-108.19,29.3c-35.85,39.65-35.18,101.18,1.52,140.14a103.43,103.43,0,0,0,173.83-102.26,18.81,18.81,0,0,1,4.34-19.19,21.49,21.49,0,0,1,30.36,0l94.91,94.85,8.7,8.71a12.29,12.29,0,0,0,17.4,0l249.71-249.73a96.73,96.73,0,0,0,25.25-43.55,97.85,97.85,0,0,0,3.3-25.36A96.64,96.64,0,0,0,4767.22,528L4517.47,278.26A12.3,12.3,0,0,0,4500.07,278.26ZM4076.54,701.82a21.51,21.51,0,0,1-30.37,0l0,0s-.06-.06-.09-.07a8,8,0,0,1-.76-.85,20.61,20.61,0,0,1-2.14-3,17.57,17.57,0,0,1-1.4-3.32c-.12-.36-.24-.75-.35-1.15a17.45,17.45,0,0,1-.51-3.67,15.86,15.86,0,0,1,.14-3.64.07.07,0,0,0,0-.1,17.36,17.36,0,0,1,.74-3.3c.86-2.68,1.59-5.4,2.2-8.11.23-1,.45-1.92.63-2.89s.35-1.83.53-2.77a104.34,104.34,0,0,0-17.08-76.77c-1.08-1.53-2.2-3.06-3.37-4.54-.81-1.06-1.66-2.09-2.51-3.11-.7-.81-1.39-1.61-2.1-2.39s-1.4-1.54-2.12-2.27c-.92-1-1.91-2-2.89-2.93s-1.77-1.67-2.68-2.5c-.76-.68-1.56-1.37-2.33-2s-1.6-1.34-2.39-1.95-1.62-1.28-2.44-1.9c-1.63-1.24-3.28-2.41-5-3.52a104.17,104.17,0,0,0-109.92-2.54c-.82.47-1.6.95-2.4,1.46l-2.38,1.55c-1.86,1.25-3.71,2.58-5.5,4-.69.55-1.34,1.06-2,1.62-.42.32-.79.62-1.17,1l-1.84,1.54c-.95.84-1.87,1.69-2.8,2.57-.4.4-.82.76-1.22,1.16-.73.68-1.43,1.4-2.14,2.16-.6.6-1.17,1.22-1.73,1.83-.83.91-1.61,1.79-2.4,2.71-.63.7-1.22,1.42-1.81,2.13-.92,1.14-1.81,2.28-2.67,3.44-.56.72-1.08,1.45-1.61,2.22a13.44,13.44,0,0,0-.78,1.14c-.83,1.2-1.64,2.44-2.41,3.69a102.22,102.22,0,0,0-12.78,31c-.26,1.13-.52,2.22-.72,3.37s-.47,2.28-.62,3.4c-.13.77-.27,1.54-.36,2.31s-.24,1.83-.33,2.72-.22,1.9-.3,2.87-.14,2-.19,3a23.45,23.45,0,0,0-.13,2.77,99.91,99.91,0,0,0,1.4,20.72c.17,1,.34,2,.54,3,.05.24.1.47.14.7.23,1,.43,2.08.7,3.1.18.7.35,1.44.52,2.14s.33,1.22.5,1.81c.24.86.49,1.69.74,2.53.31,1,.65,2.06,1,3.1.45,1.32.94,2.62,1.43,3.92.58,1.5,1.2,3,1.83,4.42s1.34,2.91,2.05,4.33,1.58,3,2.42,4.55,1.84,3.18,2.85,4.73a.62.62,0,0,0,.13.18c.42.62.8,1.23,1.22,1.82.64,1,1.3,2,2,2.87.83,1.13,1.65,2.26,2.53,3.33.57.74,1.14,1.44,1.75,2.18.88,1,1.77,2.08,2.7,3.09s2.15,2.32,3.27,3.43c.11.13.26.25.37.39,2.3,2.29,4.67,4.45,7.14,6.5l2.55,2c1.1.91,2.26,1.77,3.42,2.59s2,1.38,3.05,2.05a104.5,104.5,0,0,0,68.21,16.53,0,0,0,0,1,0,0c1.84-.19,3.65-.44,5.48-.75a.08.08,0,0,0,.08,0c1.8-.32,3.59-.64,5.37-1,3.06-.67,6.12-1.49,9.15-2.46a19.05,19.05,0,0,1,16.34,2,13,13,0,0,1,1.84,1.41c.3.26.59.52.88.82,0,0,.06,0,.09.06a21.47,21.47,0,0,1,0,30.4L3888.9,889.46l-241.06-241a72.84,72.84,0,0,1,0-103l241-241.06,104.92,104.9a46.19,46.19,0,0,0,65.21,0c.05-.06.09-.08.15-.14a43.38,43.38,0,0,0,10.23-43.9,78.79,78.79,0,0,1,132.37-78c28,29.65,28.6,76.55,1.32,106.78a79.08,79.08,0,0,1-82.52,22.38,43.34,43.34,0,0,0-44,10.41s-.05.06-.09.09a46.11,46.11,0,0,0,.1,65.12l104.89,104.88Zm673.28-156.41a72.86,72.86,0,0,1,0,103l-241,241-94.9-94.89a46.1,46.1,0,0,0-65.2,0,43.45,43.45,0,0,0-10.38,44,78.8,78.8,0,0,1-132.47,77.91c-28-29.66-28.45-76.54-1.15-106.72a79.13,79.13,0,0,1,82.48-22.36,43.24,43.24,0,0,0,44-10.38,46.16,46.16,0,0,0,0-65.21l-115-114.93L4321.13,492a21.51,21.51,0,0,1,30.39,0,.16.16,0,0,1,.06.05A17,17,0,0,1,4355,497a15.74,15.74,0,0,1,.9,2.21,6.38,6.38,0,0,1,.33,1.21,16.31,16.31,0,0,1,.52,3.64,19.63,19.63,0,0,1-.92,7.07c-.9,2.85-1.68,5.74-2.32,8.66-.23,1-.46,2-.65,3-.21,1.19-.42,2.37-.62,3.55s-.34,2.35-.48,3.55a104.49,104.49,0,0,0-.77,10.61c0,1.45,0,2.91,0,4.36,0,2.53.2,5.08.44,7.59.09,1,.21,2.06.34,3.07s.26,1.89.41,2.84a105,105,0,0,0,15.28,40.25c.69,1.09,1.4,2.12,2.13,3.19s1.73,2.36,2.62,3.54,2,2.46,3,3.68c1.43,1.73,2.95,3.41,4.51,5.07a5.45,5.45,0,0,1,.63.64c.74.74,1.49,1.49,2.25,2.2s1.73,1.67,2.64,2.49,1.56,1.37,2.33,2.05,1.6,1.34,2.39,1.95,1.62,1.27,2.44,1.89q2.44,1.86,5,3.52a104.21,104.21,0,0,0,112.32,1.08l2.38-1.55c1.86-1.25,3.71-2.57,5.5-4,.69-.54,1.34-1.06,2-1.61.41-.33.78-.63,1.16-1l1.84-1.55c.95-.84,1.87-1.68,2.8-2.56.4-.41.82-.76,1.22-1.17.73-.68,1.43-1.4,2.14-2.15s1.17-1.22,1.73-1.83c.83-.91,1.61-1.79,2.4-2.71.63-.71,1.22-1.42,1.81-2.14,1.13-1.37,2.2-2.76,3.19-4.17,1.16-1.61,2.3-3.28,3.37-4.95a1.1,1.1,0,0,0,.14-.26c.69-1.05,1.37-2.11,2-3.18a9.46,9.46,0,0,0,.54-.91c.54-1,1.06-1.91,1.56-2.83a103,103,0,0,0,8.61-21.83,104.8,104.8,0,0,0-1.91-60.54c-.41-1.31-.9-2.61-1.4-3.87s-1.09-2.73-1.67-4.09c-.72-1.65-1.49-3.28-2.26-4.87a.84.84,0,0,0-.13-.21c-.73-1.47-1.51-2.92-2.32-4.38a3.79,3.79,0,0,1-.2-.34c-.89-1.58-1.84-3.19-2.85-4.73-.53-.87-1.1-1.72-1.7-2.61a1.56,1.56,0,0,0-.33-.41c-1.16-1.77-2.4-3.41-3.71-5-.71-.88-1.39-1.75-2.14-2.61-1.63-1.93-3.31-3.8-5.13-5.6a4.08,4.08,0,0,0-.39-.43l-.43-.44-.78-.76c-.26-.25-.51-.53-.78-.75-.9-.86-1.83-1.73-2.77-2.56-1.88-1.67-3.82-3.28-5.78-4.79a1.09,1.09,0,0,0-.27-.22c-1.36-1-2.69-2-4.12-3-1.23-.84-2.46-1.68-3.71-2.45a104.06,104.06,0,0,0-58.08-15.75c-1.47.05-2.9.1-4.35.22-1.67.1-3.32.28-5,.49a9.23,9.23,0,0,0-1.4.17c-2.19.29-4.36.65-6.55,1.09A101.9,101.9,0,0,0,4423,444a0,0,0,0,0,0,0,22.76,22.76,0,0,1-2.3.58c-.27,0-.58.11-.88.17a19.72,19.72,0,0,1-2.42.19,18.4,18.4,0,0,1-11.72-3.69c-.63-.49-1.22-1-1.8-1.57v0a21.08,21.08,0,0,1-6.3-15.19,21.6,21.6,0,0,1,1.62-8.23,19.51,19.51,0,0,1,2-3.66,21.81,21.81,0,0,1,2.7-3.28l104.9-104.93Z"/><path class="cls-5" d="M4198.83,24.61a72.4,72.4,0,0,1,51.49,21.3l241.05,241,8.7-8.69a12.3,12.3,0,0,1,17.4,0L4267.72,28.51a97.49,97.49,0,0,0-137.81,0L3880.16,278.29a12.24,12.24,0,0,1,8.72-3.6,12,12,0,0,1,8.68,3.6l8.7,8.7,241.05-241A72.36,72.36,0,0,1,4198.83,24.61Z"/><path class="cls-5" d="M159.69,422.22q1,21-15.14,40.94-21.15,26.58-54.91,25.42-12.8,1.16-24.83-8.35-16.31-12.8-16.3-36.47Q50.84,416.6,69.37,399t48.41-18.14q14.55,0,23.48,5Q160.66,397.78,159.69,422.22ZM115.84,435.7a17.49,17.49,0,0,0,.39-5.24,7.22,7.22,0,0,0-2.53-4.94,10,10,0,0,0-5.24-2.62,10.25,10.25,0,0,0-4.46,0,39.58,39.58,0,0,0-6,3q-5.44,5.25-5.92,7.86a26.3,26.3,0,0,0-.49,4.85,9.4,9.4,0,0,0,2,5.15q2,2.91,9.22,1.94a15.89,15.89,0,0,0,8.44-4.08Q115.26,438.13,115.84,435.7Z"/><path class="cls-5" d="M224,618.77q28.23.19,35.7-1.16a84.8,84.8,0,0,0,12.52-3.11q5-1.74,11.15-4.46T298.62,600l8.53-8.15,6.6-4.65,6.21-1.36q7.37-.19,11.16,1.36a24.34,24.34,0,0,1,7.18,4.65,21.52,21.52,0,0,1,5.24,7.38,20.4,20.4,0,0,1,1.35,9.89,40.14,40.14,0,0,1-2.42,10.77,33.43,33.43,0,0,1-5.34,9.31q-3.39,4.19-15.62,12.71l-10.67,5.44a178.82,178.82,0,0,1-21.25,7.85q-8.05,2.24-30,4.76-28.14.58-49.48-.29t-42.3-1.85L144,656.42l-31-1.75L94.3,652.92a113.77,113.77,0,0,1-21.64,22.51q-11.93,9.32-20.08,12.42-10.86,3.3-18.24,1.75A24.61,24.61,0,0,1,25.71,685a20.92,20.92,0,0,1-5.63-7.48,19.32,19.32,0,0,1-2-7.85c0-2.26.1-4.47.3-6.6a14.54,14.54,0,0,1,1.45-5.43Q21,655.45,29.3,651l7.57-6.21q-5.44-6.78-6.7-12a22.76,22.76,0,0,1-.29-10q1-4.75,5.63-13.68,9.9-12.23,18.14-15.52a70.43,70.43,0,0,1,17-4.46,51.25,51.25,0,0,1,15.13,1.84A33.58,33.58,0,0,1,96.82,597a30.91,30.91,0,0,1,5.82,8.54l4.08,6.4,8,1.17,14.75,1.55,21.93.77Q195.78,618.57,224,618.77Z"/><path class="cls-5" d="M536.31,422.22q1,21-15.14,40.94Q500,489.74,466.26,488.58q-12.81,1.16-24.84-8.35-16.29-12.8-16.3-36.47Q427.46,416.6,446,399t48.42-18.14q14.55,0,23.47,5Q537.28,397.78,536.31,422.22ZM492.46,435.7a17.5,17.5,0,0,0,.38-5.24,7.24,7.24,0,0,0-2.52-4.94,10,10,0,0,0-5.24-2.62,10.24,10.24,0,0,0-4.46,0,40,40,0,0,0-6,3q-5.43,5.25-5.91,7.86a26.3,26.3,0,0,0-.49,4.85,9.4,9.4,0,0,0,2,5.15q2,2.91,9.21,1.94a15.82,15.82,0,0,0,8.44-4.08C490.54,439.29,492.07,437.32,492.46,435.7Z"/><path class="cls-5" d="M386.51,707.25a104.22,104.22,0,0,1-1.06-10.57,14.42,14.42,0,0,1,2.52-7.86,38.69,38.69,0,0,1,6.4-7.86,34.45,34.45,0,0,1,10.09-6.31,98.17,98.17,0,0,0,13.87-7.56q14.57-8.93,21.74-13.88t18.82-18.53a44.43,44.43,0,0,1-2.72-14.26,23.3,23.3,0,0,1,3.11-11.74,41.09,41.09,0,0,1,7.66-9.7,25,25,0,0,1,8.93-5.72A55.07,55.07,0,0,1,486.54,591a22.41,22.41,0,0,1,12.61,2.23q6.3,3,9,14.45l9.9-7.76,6.4-7.18a27.63,27.63,0,0,1,19.6-3.49l6,4.27,3.3,5.24,1.75,6.79.19,7.76a97.09,97.09,0,0,0,18.43-14q10.1-12,17.08-13.19a36.14,36.14,0,0,1,9.22,1,18.76,18.76,0,0,1,7.08,3.88,12.36,12.36,0,0,1,4.36,6.21q.88,3.3,1.75,6.4a15,15,0,0,1,.1,7,28.08,28.08,0,0,1-2.72,7.57q-1.93,3.69-8.92,10.87t-10.77,10.48q-3.79,3.3-20.09,14.55-16.29,9.51-26.77,8.92-10.87,1.95-21.15-8.34l-2.52-4.46-18.63.38-15.33,15.33-16.88,15.33-16.69,14q-14.55,10.1-19.79,13.68A72.44,72.44,0,0,1,418,716.18l-8.35,1.94h-5.82Q392.34,718.12,386.51,707.25Z"/><path class="cls-5" d="M765.75,484.41q-4.37,3-22.6,5.14-18.24.78-26.78-.59a90,90,0,0,1-14.07-3.2,42.93,42.93,0,0,1-10.77-5.43q-5.24-3.58-11.06-12.13-3.3-9.31-3.3-15.71a33.33,33.33,0,0,1,1.75-11.26,60.23,60.23,0,0,1,6-11.54A93,93,0,0,1,697,415a222.67,222.67,0,0,1,18.43-16.69q15.14-8.73,19.31-11.35t15.81-4.95q14.55.19,18.82,5.44a24.57,24.57,0,0,1,5.34,11.35,15.23,15.23,0,0,1-1.75,10.77q-2.82,4.65-11.93,10.86a61.81,61.81,0,0,0-14.26,6.7Q741,431,736.06,434.54a25.12,25.12,0,0,0-7.27,7.66c-1.56,2.72-.94,4.34,1.84,4.85a65.53,65.53,0,0,0,11.45.78,72.18,72.18,0,0,0,11.35-.68c2.72-.45,5.56-.87,8.54-1.26a10.29,10.29,0,0,1,7.95,2.13,18,18,0,0,1,5.43,7.18c1.3,3,1.68,6.7,1.17,11.16a24.35,24.35,0,0,1-3.59,10.87A27.24,27.24,0,0,1,765.75,484.41Z"/><path class="cls-5" d="M663.69,712a34,34,0,0,1-13.1,4.17,20.49,20.49,0,0,1-10.18-1.65,21.94,21.94,0,0,1-7.28-5.34,23,23,0,0,1-4.37-7.18,17.89,17.89,0,0,1-1.06-8,40.9,40.9,0,0,1,2.23-9.51,15.74,15.74,0,0,1,6.89-8.44q13.77-7.75,24.73-14.74t35.22-24.45L712.1,624l25.61-19.4,12.81-10.09,9.31-5.43,7.38-1.17a23.27,23.27,0,0,1,9.7,1.94,26.5,26.5,0,0,1,7.47,5,19.63,19.63,0,0,1,4.85,8.24q1.65,5.15,3,17l.19,9.32-.78,11.25q-.39,15.72-8.92,40.16-5.06,14.17-9.32,20.86a69.17,69.17,0,0,1-6,8.54c-1.16,1.23-2.27,2.29-3.3,3.2s-3.33,1.87-6.89,2.91a37.41,37.41,0,0,1-12.8,1.07q-7.47-.48-15.24-7.86-5.43-8.34-2.71-14.94l5.24-8.93a89.25,89.25,0,0,0,7.37-16.1,52.5,52.5,0,0,0,2.52-14.94q-15.33,13-25.51,21.44t-21,15.91q-10.77,7.47-17.46,11.84T663.69,712Z"/><path class="cls-5" d="M907.69,429.79q6.19-4.08,13.87-9.8T946.1,400.1q9.71-8.93,15.62-10.38a22.64,22.64,0,0,1,11.94.29,16.78,16.78,0,0,1,9.21,6.11,29.2,29.2,0,0,1,4.56,8.83,20.91,20.91,0,0,1,.39,9.9q-1,5.43-9.31,14L969.78,436Q953.87,448.8,936,461.61L920.3,471.5l-14.17,9.12-9.5,5.24q-8.94,3.88-15.33,4t-10.09-1.75a22.79,22.79,0,0,1-6.7-5.14,25.17,25.17,0,0,1-4.94-9.31,23.92,23.92,0,0,1,.09-9.9,26.39,26.39,0,0,1,3.3-7.57,20.21,20.21,0,0,1,7.08-6.3,71.74,71.74,0,0,1,11.16-5.14,77.91,77.91,0,0,0,13.29-6.6Q901.48,433.87,907.69,429.79Z"/><path class="cls-5" d="M965.12,588.89,963,594.32l-2.91,5,9.32-1.16,10.09-1,11.25-.39q11.25.39,15.14,2.62a15.26,15.26,0,0,1,7.27,13.09q-.28,2.73-4.56,9.9l-9.51,10.67-11.25,9.32-18.43,15.91-19,15.52-21.15,16.49L902.83,710l-35.89,27-9.32,4.27-9.89,2.13a69.5,69.5,0,0,1-9.9-1.94,14.71,14.71,0,0,1-5.33-2.91q-2.24-1.93-4.66-7a25.66,25.66,0,0,1-2.72-8.83,31.52,31.52,0,0,1,.1-6.6,19.59,19.59,0,0,1,2.91-7,16.31,16.31,0,0,1,6.79-6.31l19.79-11.06,17.47-12.22q10.47-6.79,26.58-18.83L921.07,644l10.48-8.93-18.43,1.36-9.7.39-14.94.19q-10.1-1.54-12.23-9.51l-.19-7q.77-4.66,5.62-10.87l12-9.5,6.41-3.88,8-6a152.22,152.22,0,0,0,15-13.78q4.95-5.43,6.6-9.21c1.1-2.53,4-4,8.73-4.56a31.93,31.93,0,0,1,11.93.58,58.74,58.74,0,0,1,8.25,2.91,12,12,0,0,1,5,3.78,15,15,0,0,1,2.23,5.44Q966.48,578.61,965.12,588.89Z"/><path class="cls-5" d="M1167.59,484.41q-4.36,3-22.6,5.14-18.24.78-26.78-.59a90,90,0,0,1-14.07-3.2,42.7,42.7,0,0,1-10.76-5.43q-5.25-3.58-11.07-12.13-3.3-9.31-3.29-15.71a33.34,33.34,0,0,1,1.74-11.26,60.81,60.81,0,0,1,6-11.54,93,93,0,0,1,12-14.65,224.3,224.3,0,0,1,18.43-16.69q15.13-8.73,19.31-11.35t15.81-4.95q14.55.19,18.82,5.44a24.37,24.37,0,0,1,5.34,11.35,15.18,15.18,0,0,1-1.75,10.77q-2.82,4.65-11.93,10.86a61.81,61.81,0,0,0-14.26,6.7q-5.73,3.78-10.68,7.37a25.24,25.24,0,0,0-7.27,7.66q-2.33,4.08,1.84,4.85a65.53,65.53,0,0,0,11.45.78,72.09,72.09,0,0,0,11.35-.68c2.72-.45,5.56-.87,8.54-1.26a10.28,10.28,0,0,1,8,2.13,18.12,18.12,0,0,1,5.44,7.18q1.93,4.47,1.16,11.16a24.35,24.35,0,0,1-3.59,10.87A27.24,27.24,0,0,1,1167.59,484.41Z"/><path class="cls-5" d="M1065.53,712a34,34,0,0,1-13.1,4.17,20.49,20.49,0,0,1-10.18-1.65,21.94,21.94,0,0,1-7.28-5.34,23.21,23.21,0,0,1-4.37-7.18,17.89,17.89,0,0,1-1.06-8,41.41,41.41,0,0,1,2.23-9.51,15.74,15.74,0,0,1,6.89-8.44q13.77-7.75,24.74-14.74t35.21-24.45L1113.94,624l25.62-19.4,12.8-10.09,9.31-5.43,7.38-1.17a23.27,23.27,0,0,1,9.7,1.94,26.5,26.5,0,0,1,7.47,5,19.63,19.63,0,0,1,4.85,8.24q1.65,5.15,3,17l.19,9.32-.78,11.25q-.39,15.72-8.92,40.16-5,14.17-9.31,20.86a70,70,0,0,1-6,8.54c-1.16,1.23-2.26,2.29-3.3,3.2s-3.33,1.87-6.88,2.91a37.47,37.47,0,0,1-12.81,1.07q-7.47-.48-15.23-7.86-5.44-8.34-2.72-14.94l5.24-8.93a89.25,89.25,0,0,0,7.37-16.1,51.81,51.81,0,0,0,2.52-14.94q-15.32,13-25.51,21.44T1097,692q-10.76,7.47-17.46,11.84T1065.53,712Z"/><path class="cls-5" d="M1458.35,786.51q6.21-4,11.54-7.76t22.22-18.14q9.71-8.73,15.53-10.19a22.45,22.45,0,0,1,11.83.29,16.69,16.69,0,0,1,9.22,6.21,31,31,0,0,1,4.56,8.93,21.92,21.92,0,0,1,.48,9.9q-.87,5.43-9.41,13.58l-8.73,7.18q-15.91,13-28.91,21.92l-15.52,9.7-14.36,9.12q-14.37,6.6-20.08,6.7a20.24,20.24,0,0,1-9.41-1.75,22.83,22.83,0,0,1-6.7-5.14,25.11,25.11,0,0,1-4.95-9.31,23.9,23.9,0,0,1,.1-9.9,24.94,24.94,0,0,1,3.39-7.57,21.49,21.49,0,0,1,7.09-6.3,73.33,73.33,0,0,1,11.06-5.24,51.94,51.94,0,0,0,10.57-5.34Q1452.15,790.49,1458.35,786.51Zm24.06,50.94q6.21-4.08,11.55-7.86t22.21-18q9.7-8.73,15.62-10.28a21.66,21.66,0,0,1,11.84.19,17.08,17.08,0,0,1,9.21,6.21,30,30,0,0,1,4.66,8.83,20.24,20.24,0,0,1,.29,9.89q-1.07,5.53-9.22,13.88l-8.73,7.18q-15.91,12.81-28.52,21.15-16.11,10.47-23.28,14.55a90.19,90.19,0,0,1-13.58,6.4,39.26,39.26,0,0,1-12.91,2.43q-6.49.09-10.28-1.75a22,22,0,0,1-6.7-5q-2.91-3.21-4.65-9.41a21.08,21.08,0,0,1,0-9.9,22.14,22.14,0,0,1,4.75-8.25q3.58-4.17,12.32-7.37a111.8,111.8,0,0,0,14-6Q1476.21,841.52,1482.41,837.45Z"/><path class="cls-5" d="M1476.2,695.61q-2.13,4.65.39,8.44T1489,709.1a86.39,86.39,0,0,0,20.47.09q10.57-1.16,18.14-2.52t21.34-9.51q8.34-3.1,13.49-2.62a15.22,15.22,0,0,1,9.31,4.56,20.09,20.09,0,0,1,5.53,10.58,25.11,25.11,0,0,1-.48,12.61q-1.85,6.12-5.24,9.22a42.94,42.94,0,0,1-8.15,5.72q-4.76,2.63-8.83,4.56T1538.1,747l-18.63,3.49-14,1.17q-28.53,1.54-48.31-3.69-12.23-4.66-15-6.7c-1.81-1.35-3.68-2.81-5.62-4.36s-4.14-4.3-6.6-8.25a35.19,35.19,0,0,1-4.85-11.93,38.21,38.21,0,0,1,.19-13.78,50.93,50.93,0,0,1,4-13.19,98,98,0,0,1,9.41-14.55l6.6-7.57-5.82-5-5.24-6.4-2.52-8.92q-.78-14.37,3.49-24.26l7.76-13.19,5.44-6.21,5.43-4.66,7-5.62q16.31-10.29,31.63-10.29l9.51,1.36,9.7,3.49,9.31,6.79,5.44-3.88q12-8,19.79-10.77a46.16,46.16,0,0,1,15.81-2.81,51.57,51.57,0,0,1,14.17,1.75,35.93,35.93,0,0,1,12.7,7.18q8.16,8.34,8.35,21,1.15,7.38-3.88,19.21-6.4,16.11-18.82,25.61l-14.75,11.26a132.25,132.25,0,0,1-36.28,13.39l-13.78,2.13-6.79.58h-12.81l-4.66,4.27Q1478.34,691,1476.2,695.61Zm6.4-56.27q10.1-5.43,11.84-10t-2.52-5.24a8,8,0,0,0-7.28,2.33c-2,2-3,4.07-3,6.21A25.28,25.28,0,0,0,1482.6,639.34ZM1546,628.67a19,19,0,0,0,4-5.24,1.74,1.74,0,0,0-1.06-2.62c-1.23-.45-3.27,0-6.12,1.46l-6.2,5-4.66,7Q1542.75,632,1546,628.67Z"/><path class="cls-5" d="M1665.19,787q6.21-4.08,11.54-7.86t22-17.95q9.88-8.93,15.71-10.28a22.93,22.93,0,0,1,11.84.39,17.47,17.47,0,0,1,9.31,6,25.84,25.84,0,0,1,4.56,8.73,22.83,22.83,0,0,1,.3,10.09c-.66,3.75-3.69,8.35-9.13,13.78l-8.73,7.18q-15.91,12.81-29.1,21.54l-15.33,10.09-14.36,9.12-9.7,5q-8.93,4.08-15.33,4.17t-10.09-1.74a22.48,22.48,0,0,1-6.6-5,25.08,25.08,0,0,1-4.85-9.41,22.29,22.29,0,0,1-.09-9.89,24.94,24.94,0,0,1,3.39-7.57,21.36,21.36,0,0,1,7.08-6.31,68.43,68.43,0,0,1,11.06-5.14,75.77,75.77,0,0,0,13.29-6.6Q1659,791.08,1665.19,787Z"/><path class="cls-5" d="M1626.38,707.25a104.22,104.22,0,0,1-1.06-10.57,14.42,14.42,0,0,1,2.52-7.86,38.69,38.69,0,0,1,6.4-7.86,34.45,34.45,0,0,1,10.09-6.31,98.17,98.17,0,0,0,13.87-7.56q14.57-8.93,21.74-13.88t18.82-18.53a44.43,44.43,0,0,1-2.72-14.26,23.29,23.29,0,0,1,3.1-11.74,41.39,41.39,0,0,1,7.67-9.7,25,25,0,0,1,8.92-5.72,55.19,55.19,0,0,1,10.68-2.23,22.41,22.41,0,0,1,12.61,2.23q6.3,3,9,14.45l9.9-7.76,6.4-7.18a27.63,27.63,0,0,1,19.6-3.49l6,4.27,3.3,5.24,1.75,6.79.19,7.76a97.49,97.49,0,0,0,18.44-14q10.08-12,17.07-13.19a36.14,36.14,0,0,1,9.22,1A18.76,18.76,0,0,1,1847,591a12.36,12.36,0,0,1,4.36,6.21q.89,3.3,1.75,6.4a15,15,0,0,1,.1,7,28.08,28.08,0,0,1-2.72,7.57q-1.93,3.69-8.93,10.87t-10.76,10.48q-3.79,3.3-20.09,14.55-16.29,9.51-26.77,8.92-10.87,1.95-21.15-8.34l-2.52-4.46-18.63.38-15.33,15.33-16.88,15.33-16.69,14q-14.55,10.1-19.79,13.68a72.44,72.44,0,0,1-15.13,7.28l-8.35,1.94h-5.82Q1632.21,718.12,1626.38,707.25Z"/><path class="cls-5" d="M1963,383.41l18-.19q20.19,1.93,27.65,4.46a33.34,33.34,0,0,1,12.71,7.57q5.25,5,6.5,9.89a21.52,21.52,0,0,1,.68,8.64,85,85,0,0,1-2.23,9.7,31.26,31.26,0,0,1-6.89,11.93l-12.42,14-11.83,10.67-11.45,8.15a147.67,147.67,0,0,1-16.2,10.58,91.58,91.58,0,0,1-15.33,7.08,75.28,75.28,0,0,1-12.61,3.2,29.79,29.79,0,0,1-10.48-.1,23.16,23.16,0,0,1-9.8-5q-5-4.08-5.63-17.27a28.49,28.49,0,0,1,5-14.55q6.4-4.85,12-5.53t11.64-1.94a77.66,77.66,0,0,0,13.87-4.56,61.48,61.48,0,0,0,13.78-7.86q5.92-4.56,3.59-7.08t-22.7.58l-8.15-1q-8.14-1.94-10.57-8.05a24.67,24.67,0,0,1-1.85-11.74,18.23,18.23,0,0,1,3.59-9.51,32.93,32.93,0,0,1,7.18-6.79Q1945.37,385.74,1963,383.41Z"/><path class="cls-5" d="M1913.07,712a34,34,0,0,1-13.1,4.17,20.53,20.53,0,0,1-10.19-1.65,21.9,21.9,0,0,1-7.27-5.34,22.84,22.84,0,0,1-4.37-7.18,17.9,17.9,0,0,1-1.07-8,41,41,0,0,1,2.24-9.51,15.72,15.72,0,0,1,6.88-8.44q13.79-7.75,24.74-14.74t35.22-24.45L1961.48,624l25.61-19.4,12.8-10.09,9.32-5.43,7.37-1.17a23.24,23.24,0,0,1,9.7,1.94,26.22,26.22,0,0,1,7.47,5,19.64,19.64,0,0,1,4.86,8.24q1.64,5.15,3,17l.2,9.32L2041,640.7q-.39,15.72-8.92,40.16-5.05,14.17-9.32,20.86a70.33,70.33,0,0,1-6,8.54c-1.17,1.23-2.27,2.29-3.3,3.2s-3.33,1.87-6.89,2.91a37.44,37.44,0,0,1-12.81,1.07q-7.47-.48-15.23-7.86-5.43-8.34-2.71-14.94l5.23-8.93a89.36,89.36,0,0,0,7.38-16.1,52.5,52.5,0,0,0,2.52-14.94q-15.33,13-25.51,21.44t-21,15.91q-10.77,7.47-17.46,11.84T1913.07,712Z"/><path class="cls-5" d="M2114,787q6.21-4.08,11.54-7.86t22-17.95q9.89-8.93,15.71-10.28a22.93,22.93,0,0,1,11.84.39,17.47,17.47,0,0,1,9.31,6A25.84,25.84,0,0,1,2189,766a22.69,22.69,0,0,1,.29,10.09q-1,5.63-9.12,13.78l-8.73,7.18q-15.91,12.81-29.1,21.54L2127,828.72l-14.36,9.12-9.7,5q-8.92,4.08-15.33,4.17t-10.09-1.74a22.35,22.35,0,0,1-6.6-5,24.94,24.94,0,0,1-4.85-9.41,22.31,22.31,0,0,1-.1-9.89,25,25,0,0,1,3.4-7.57,21.36,21.36,0,0,1,7.08-6.31,68.43,68.43,0,0,1,11.06-5.14,76.12,76.12,0,0,0,13.29-6.6Q2107.78,791.08,2114,787Z"/><path class="cls-5" d="M2113.6,627.31q-2.52-3.88-2.33-13.58-.2-5.82,5.82-14.75l9.51-6.4,7.76-2.33,12.81-1.94,9.89-.39h19.41l10.28.39A140.35,140.35,0,0,1,2210,592l8.54,3.29,7,7.57q3.49,5.82,4,8.83a40.38,40.38,0,0,1,.39,7.37,36.09,36.09,0,0,1-1.06,8.15c-.65,2.53-2.4,6.63-5.24,12.33a175.29,175.29,0,0,1-21,23.08l-12.42,11.45-13.19,10.48-19,14q-26,18-34.15,22.41a77.23,77.23,0,0,1-17.07,6.69,29.85,29.85,0,0,1-17.08-2.13l-5.24-4.85-3.49-6a22.8,22.8,0,0,1-1.74-7.56c0-1.94.06-3.76.19-5.44a28.22,28.22,0,0,1,1.65-6.69q1.46-4.17,8.63-8.63l8-3.5q16.48-7.56,38.42-22.5l12.8-9.32q15.72-12,21.73-17.07a66.54,66.54,0,0,0-14.93-.87q-5.84.48-19.41,2l-8.15,1.17Q2117.68,635.85,2113.6,627.31Z"/><path class="cls-5" d="M2328.78,474.51a104.83,104.83,0,0,1-13.39,8.54,59,59,0,0,1-15.23,6,46.35,46.35,0,0,1-12.61,1.36q-5.34-.29-8.15-2.33a27.57,27.57,0,0,1-5.24-5q-2.43-3-3.39-10.19-1.56-11.64,2.23-16.69a26.53,26.53,0,0,1,7.66-7.27,19.07,19.07,0,0,1,8.44-2.52,45.62,45.62,0,0,0,12.13-3.11,49.82,49.82,0,0,0,12.51-6.5q5-3.69,9.22-6.5t-.39-4.37a25.49,25.49,0,0,0-10.28-1.06,45.61,45.61,0,0,1-11.45-.49,17.46,17.46,0,0,1-9.12-4q-3.3-3-4.46-8.83a23.52,23.52,0,0,1,.78-11.94,19.85,19.85,0,0,1,5.82-9.41,23.26,23.26,0,0,1,8.34-4.66q4.46-1.35,14.55-2.13a104.49,104.49,0,0,1,11.45.88,82.58,82.58,0,0,1,9,1.74,35.38,35.38,0,0,1,8.25,3.3,28.54,28.54,0,0,1,8.05,7.08,31.93,31.93,0,0,1,5.92,12.42A60,60,0,0,1,2369.82,398a84.09,84.09,0,0,1,12.13-8.53,99.57,99.57,0,0,1,16.88-7l8.15-1.74a28.24,28.24,0,0,1,10.57.68,14.82,14.82,0,0,1,7.08,4.65,19.8,19.8,0,0,1,4.08,7.47q1.15,4.08.39,10.87-1.36,6-3.59,8.92t-8.05,5q-11.07,4.65-16.11,6.88t-14.75,10.19q-7.36,9.31-3.49,11.84a12.63,12.63,0,0,0,7.57,2.33q3.68-.19,12.32-.59t12.61,3.11a13.11,13.11,0,0,1,4.37,9.41,32.89,32.89,0,0,1-.78,10.38,26.23,26.23,0,0,1-3.49,8,15.76,15.76,0,0,1-6.89,5.53,26.11,26.11,0,0,1-9.7,2.23q-5.14.19-17,.58-11.44-1.54-15-2.72t-8.83-3.3q-5.23-2.13-12.22-11.83l-3.69-8.15A147.82,147.82,0,0,1,2328.78,474.51Z"/><path class="cls-5" d="M2299.09,676.79l2.72-5.24,6.6-15.13q6-16.3,7.18-22.13c.77-3.87,1.36-7.14,1.74-9.79s.32-7.73-.19-15.23q-1.93-4.08,6.4-12.62l7.38-3.68,12.41-2.33,9.9,1.36c4.27,2.32,7.08,4.43,8.44,6.3a22.88,22.88,0,0,1,3.11,5.92,36.39,36.39,0,0,1,1.55,7.57,55,55,0,0,1-.29,11.45l-2.72,9.31-5.82,15.13a117.68,117.68,0,0,0,15.91-8.82q5-3.6,15.52-10.77l10.48-8.93,10.67-9.31,6.79-6.21q8.93-8.92,17.66-12.23,10.47.58,13.1,2.33A43.88,43.88,0,0,1,2453,598a19.84,19.84,0,0,1,4.47,6.31,40.09,40.09,0,0,1,2.52,6.89c.51,2.07.26,5.5-.78,10.28l-3.49,6.6q-10.48,11.83-15.13,16t-17.47,14.27l-16.49,13-17.66,12a235.29,235.29,0,0,1-22,12.8q-10.38,5.25-21.54,9.61t-20.47,4.36a31.38,31.38,0,0,1-17.66-5.24l-5.23-4.27q-4.86-5.24-4.86-14.16Q2297.73,684,2299.09,676.79Z"/><path class="cls-5" d="M2723.06,381.67l18.24-.39q20.37,1.16,27.74,4.07a38.09,38.09,0,0,1,12.61,8q5.25,5,6.41,9.89a24.78,24.78,0,0,1,.68,8.73,68.77,68.77,0,0,1-2.14,9.71q-1.65,5.82-9.6,17.46l-12.23,13.58-12.22,10.87-11.06,8.15a186,186,0,0,1-16.3,10.67,92.89,92.89,0,0,1-11.74,6.11,37.78,37.78,0,0,1-6,1.75,20.57,20.57,0,0,1-7.38-.49,22.63,22.63,0,0,1-9.7-5q-5-4.08-5.72-17.27a32.34,32.34,0,0,1,5-14.75,32.09,32.09,0,0,1,12.23-5.14,45,45,0,0,0,9.12-2.23q11.25-8.15,19-14.46t4.66-8.24q-3.1-2-18.24,1l-8.15-.59q-8.14-1.94-10.58-8.05a25.89,25.89,0,0,1-1.93-11.83,17.24,17.24,0,0,1,3.59-9.61,33.22,33.22,0,0,1,7.37-6.79Q2711,383.8,2723.06,381.67Zm89.25,0,17.85-.39q21.35,1.55,28.91,4.26a30.29,30.29,0,0,1,12.23,7.77q4.65,5,5.82,9.89a26.52,26.52,0,0,1,.77,8.73,58.17,58.17,0,0,1-2,9.71q-1.65,5.82-9.61,17.46l-12.42,13.58-12,10.87-11.26,8.15a157.75,157.75,0,0,1-16.2,10.67,56.59,56.59,0,0,1-24.74,8.15,64.33,64.33,0,0,1-8.44-.2c-3.3-.25-6.57-1.94-9.8-5S2766,477,2765,469.76q1.55-10.49,5.82-15.91,6.78-5.44,12.22-6.31a123.25,123.25,0,0,0,14.17-3.4q14.36-7,22-13.29t4.66-8.24q-3-2-15.62,1l-8-.59q-8.34-1.94-10.77-8.05a24.88,24.88,0,0,1-1.84-11.83,18.34,18.34,0,0,1,3.59-9.61,32.26,32.26,0,0,1,7.18-6.79Q2802.61,383.8,2812.31,381.67Z"/><path class="cls-5" d="M2798.05,665.34a17.81,17.81,0,0,1,17.17,6.4q3.5,4.86,3.88,8.74t.39,9.12q-2.32,6.39-3.3,9.11a10.46,10.46,0,0,1-3.59,4.76,28.31,28.31,0,0,1-7.95,3.88q-5.34,1.85-16,1.45-14-.57-35.51-4.65l-15.91-2.91a156.54,156.54,0,0,1-20.57-5.44,16.28,16.28,0,0,1-9.6-8.63q-2.82-6.1-2.33-11.06a19,19,0,0,1,1.94-7.47q1.46-2.52,3-5.43a32.89,32.89,0,0,1,6.21-7.38l8.92-7,14.75-9.9-11.45-3.88-7-3.49-5.44-3.69q-3.69-2.71-4.46-5.62a42.15,42.15,0,0,1-1.16-6.7q-.39-3.78,2.32-10.38a74.69,74.69,0,0,1,19.41-14.55q8.34-5.62,14.94-10.87,10.47-7.17,13.68-8.63a20.13,20.13,0,0,1,7.47-1.65,49.68,49.68,0,0,1,8.73.39,16.36,16.36,0,0,1,8.34,3.78,19.21,19.21,0,0,1,5.53,6.89,16.62,16.62,0,0,1,1.17,8.54,17.69,17.69,0,0,1-3.4,8.82q-2.91,4-16.69,14.27l12.23,2.71,8.73,3.49q1,.78,4,3.11a13.35,13.35,0,0,1,4.27,5.34,28.85,28.85,0,0,1,1.84,6.79,12.47,12.47,0,0,1-.87,7.08,25.74,25.74,0,0,1-3.69,6,29.44,29.44,0,0,1-6.69,5.63l-7.18,4.66-13,7.56Q2787.67,666.9,2798.05,665.34Z"/><path class="cls-5" d="M2991.4,422.22q1,21-15.13,40.94-21.15,26.58-54.91,25.42-12.81,1.16-24.84-8.35-16.29-12.8-16.3-36.47,2.34-27.17,20.86-44.73t48.41-18.14q14.55,0,23.48,5Q2992.37,397.78,2991.4,422.22Zm-43.85,13.48a17.17,17.17,0,0,0,.39-5.24,7.24,7.24,0,0,0-2.52-4.94,10,10,0,0,0-5.24-2.62,10.24,10.24,0,0,0-4.46,0,40,40,0,0,0-6,3q-5.43,5.25-5.92,7.86a27.13,27.13,0,0,0-.48,4.85,9.4,9.4,0,0,0,2,5.15q2,2.91,9.21,1.94a15.82,15.82,0,0,0,8.44-4.08Q2947,438.13,2947.55,435.7Z"/><path class="cls-5" d="M2841.61,707.25a104.88,104.88,0,0,1-1.07-10.57,14.59,14.59,0,0,1,2.52-7.86,39.08,39.08,0,0,1,6.41-7.86,34.31,34.31,0,0,1,10.09-6.31,98.17,98.17,0,0,0,13.87-7.56q14.55-8.93,21.73-13.88T2914,634.68a44.66,44.66,0,0,1-2.71-14.26,23.29,23.29,0,0,1,3.1-11.74A41.13,41.13,0,0,1,2922,599a24.93,24.93,0,0,1,8.92-5.72,55.24,55.24,0,0,1,10.67-2.23,22.43,22.43,0,0,1,12.62,2.23q6.3,3,9,14.45l9.89-7.76,6.41-7.18a27.61,27.61,0,0,1,19.59-3.49l6,4.27,3.3,5.24,1.75,6.79.19,7.76a97.41,97.41,0,0,0,18.43-14q10.09-12,17.08-13.19a36,36,0,0,1,9.21,1,18.72,18.72,0,0,1,7.09,3.88,12.42,12.42,0,0,1,4.36,6.21q.87,3.3,1.75,6.4a14.85,14.85,0,0,1,.09,7,27.72,27.72,0,0,1-2.71,7.57q-1.95,3.69-8.93,10.87T3046,639.54q-3.78,3.3-20.08,14.55-16.3,9.51-26.78,8.92Q2988.3,665,2978,654.67l-2.52-4.46-18.62.38-15.33,15.33-16.88,15.33-16.69,14q-14.55,10.1-19.79,13.68a72.56,72.56,0,0,1-15.14,7.28l-8.34,1.94h-5.82Q2847.42,718.12,2841.61,707.25Z"/><path class="cls-5" d="M3174.38,429.79q6.2-4.08,13.87-9.8t24.55-19.89q9.69-8.93,15.61-10.38a22.64,22.64,0,0,1,11.94.29,16.75,16.75,0,0,1,9.21,6.11,29.2,29.2,0,0,1,4.56,8.83,20.91,20.91,0,0,1,.39,9.9q-1,5.43-9.31,14l-8.73,7.18q-15.91,12.81-33.76,25.62L3187,471.5l-14.17,9.12-9.5,5.24q-8.93,3.88-15.33,4t-10.09-1.75a22.79,22.79,0,0,1-6.7-5.14,25.17,25.17,0,0,1-4.94-9.31,23.92,23.92,0,0,1,.09-9.9,26.39,26.39,0,0,1,3.3-7.57,20.21,20.21,0,0,1,7.08-6.3,71.74,71.74,0,0,1,11.16-5.14,77.55,77.55,0,0,0,13.29-6.6Q3168.17,433.87,3174.38,429.79Z"/><path class="cls-5" d="M3131.11,627.31q-2.54-3.88-2.33-13.58-.2-5.82,5.82-14.75l9.51-6.4,7.76-2.33,12.8-1.94,9.9-.39H3194l10.29.39a140.35,140.35,0,0,1,23.28,3.69l8.54,3.29,7,7.57q3.49,5.82,4,8.83a42.26,42.26,0,0,1,.39,7.37,36.08,36.08,0,0,1-1.07,8.15c-.65,2.53-2.39,6.63-5.24,12.33a175.16,175.16,0,0,1-20.95,23.08l-12.42,11.45-13.19,10.48-19,14q-26,18-34.15,22.41a77.42,77.42,0,0,1-17.07,6.69,29.85,29.85,0,0,1-17.08-2.13l-5.24-4.85-3.49-6a22.86,22.86,0,0,1-1.75-7.56c0-1.94.07-3.76.2-5.44a27.74,27.74,0,0,1,1.65-6.69q1.45-4.17,8.63-8.63l8-3.5q16.49-7.56,38.42-22.5l12.8-9.32q15.72-12,21.73-17.07a66.6,66.6,0,0,0-14.94-.87q-5.82.48-19.4,2l-8.15,1.17Q3135.18,635.85,3131.11,627.31Z"/><path class="cls-5" d="M3346.29,474.51a105.54,105.54,0,0,1-13.39,8.54,59,59,0,0,1-15.23,6,46.39,46.39,0,0,1-12.61,1.36q-5.34-.29-8.15-2.33a27.57,27.57,0,0,1-5.24-5q-2.43-3-3.4-10.19-1.55-11.64,2.23-16.69a26.68,26.68,0,0,1,7.67-7.27,19.07,19.07,0,0,1,8.44-2.52,45.62,45.62,0,0,0,12.13-3.11,50,50,0,0,0,12.51-6.5q5-3.69,9.22-6.5t-.39-4.37a25.49,25.49,0,0,0-10.28-1.06,45.59,45.59,0,0,1-11.45-.49,17.46,17.46,0,0,1-9.12-4q-3.3-3-4.46-8.83a23.62,23.62,0,0,1,.77-11.94,19.85,19.85,0,0,1,5.82-9.41,23.39,23.39,0,0,1,8.35-4.66q4.45-1.35,14.55-2.13a104.89,104.89,0,0,1,11.45.88,82.58,82.58,0,0,1,9,1.74,35.38,35.38,0,0,1,8.25,3.3,28.54,28.54,0,0,1,8.05,7.08,31.93,31.93,0,0,1,5.92,12.42A60,60,0,0,1,3387.33,398a84,84,0,0,1,12.12-8.53,99.93,99.93,0,0,1,16.88-7l8.15-1.74a28.29,28.29,0,0,1,10.58.68,14.82,14.82,0,0,1,7.08,4.65,19.8,19.8,0,0,1,4.08,7.47q1.16,4.08.38,10.87-1.35,6-3.59,8.92t-8.05,5q-11.05,4.65-16.1,6.88t-14.75,10.19q-7.38,9.31-3.49,11.84a12.63,12.63,0,0,0,7.57,2.33q3.67-.19,12.32-.59t12.61,3.11a13.06,13.06,0,0,1,4.36,9.41,32.91,32.91,0,0,1-.77,10.38,26.23,26.23,0,0,1-3.49,8,15.81,15.81,0,0,1-6.89,5.53,26.15,26.15,0,0,1-9.7,2.23q-5.15.19-17,.58-11.46-1.54-15-2.72t-8.83-3.3q-5.24-2.13-12.22-11.83l-3.69-8.15A147.82,147.82,0,0,1,3346.29,474.51Z"/><path class="cls-5" d="M3316.6,676.79l2.72-5.24,6.6-15.13q6-16.3,7.18-22.13c.77-3.87,1.35-7.14,1.74-9.79s.32-7.73-.19-15.23q-2-4.08,6.4-12.62l7.37-3.68,12.42-2.33,9.9,1.36c4.27,2.32,7.08,4.43,8.44,6.3a22.54,22.54,0,0,1,3.1,5.92,35.14,35.14,0,0,1,1.55,7.57,53.66,53.66,0,0,1-.29,11.45l-2.71,9.31L3375,647.68a117.68,117.68,0,0,0,15.91-8.82q5-3.6,15.52-10.77l10.48-8.93,10.67-9.31,6.79-6.21q8.92-8.92,17.66-12.23,10.47.58,13.1,2.33a43.88,43.88,0,0,1,5.33,4.27,19.66,19.66,0,0,1,4.46,6.31,39.38,39.38,0,0,1,2.53,6.89q.76,3.1-.78,10.28l-3.49,6.6q-10.49,11.83-15.14,16t-17.46,14.27l-16.49,13-17.66,12a235.29,235.29,0,0,1-22,12.8q-10.38,5.25-21.54,9.61t-20.47,4.36a31.38,31.38,0,0,1-17.66-5.24l-5.24-4.27q-4.85-5.24-4.85-14.16Q3315.25,684,3316.6,676.79Z"/></svg>