<svg id="Layer_2" data-name="Layer 2" xmlns="http://www.w3.org/2000/svg" viewBox="0 0 4795.76 1193.82"><defs><style>.cls-1{fill:#cbe5f8;}.cls-2{fill:#2a333f;}.cls-3{fill:#ed1c24;}.cls-4{fill:#9b1c22;}.cls-5{fill:#29333f;}</style></defs><path class="cls-1" d="M891.11,922.62l-8.69-8.69-94.9-94.85a11,11,0,0,0-8-3.36h0a11.33,11.33,0,0,0-8.14,3.33,8.87,8.87,0,0,0-1.89,9.1,113.45,113.45,0,0,1-108,147.79h-1.75a112.59,112.59,0,0,1-80.84-35.63c-40.25-42.72-41-110.23-1.67-153.71a113.78,113.78,0,0,1,118.64-32.12,8.85,8.85,0,0,0,9-1.87,11.5,11.5,0,0,0,0-16.27L596.92,628.47l-97.81,97.82a55.56,55.56,0,0,1-39.6,16.44h-.24c-1.12,0-2.29-.05-3.41-.11h-.27c-2.16-.17-3.84-.37-5.45-.64A54.81,54.81,0,0,1,434.7,737c-1.12-.53-2.19-1.12-3.17-1.68L429.17,734l-.12-.21-.65-.42c-1.22-.79-2.47-1.7-3.79-2.75-1-.77-1.9-1.56-2.82-2.39l-1.54-.41-1.49-2.56a51.89,51.89,0,0,1-5.72-7.19c-.69-1.06-1.25-2-1.73-2.85a15.27,15.27,0,0,1-1-1.76c-.44-.82-.85-1.64-1.22-2.45-.77-1.71-1.3-3-1.75-4.27-.55-1.55-1-3-1.31-4.31a36.78,36.78,0,0,1-.83-3.65,47.38,47.38,0,0,1-.81-6.86l-.08-1.78c0-1.32,0-2.52,0-3.72v-.17c.11-1.79.25-3.3.44-4.73.07-.65.16-1.2.23-1.62q.46-2.73,1.15-5.31c.22-.81.48-1.65.74-2.44a68.65,68.65,0,0,0-8-58.58c-.82-1.23-1.57-2.29-2.24-3.19-1-1.29-1.78-2.3-2.58-3.23l-.33-.4c-.3-.39-.75-.89-1.24-1.41l-.23-.26c-.4-.47-.9-1-1.43-1.52-1.24-1.28-2.34-2.36-3.42-3.34a7.7,7.7,0,0,1-.6-.54s0,0,0,0l-.07-.06c-.58-.5-1.15-1-1.69-1.46a70.63,70.63,0,0,0-9.72-6.71c-.94-.54-1.94-1.06-3-1.6l-2-1a67.22,67.22,0,0,0-30-6.4c-1.17,0-2,0-2.84.1h-.18c-.8.05-1.55.1-2.31.17l-.22,0c-.33,0-.67,0-.93.09l-.14,0-.35,0-1.91.35-.32-.08-.36.06-.3,0c-.7.11-1.44.23-2.19.4l-.29.05a61.43,61.43,0,0,0-8.85,2.4l-.39.14c-.51.16-1.05.35-1.61.56l-.51.19-.13,0-.06.09-2.95,1.16-.13.06-1.61.73-.54.27-.47.23c-1,.46-1.89.91-2.71,1.39l-.31.17c-.82.44-1.68.94-2.87,1.68l-2.27,1.49a11.85,11.85,0,0,0-1.11.77l-.45.35a63.22,63.22,0,0,0-7,5.72,66.71,66.71,0,0,0-5.69,6.07l-.11.13c-.79.92-1.62,2-2.61,3.3-.45.62-.87,1.18-1.2,1.69l-.08.12c-.41.6-.82,1.23-1.2,1.84l-.06.08a65.22,65.22,0,0,0-4.29,7.91v0l-.24.89-.55.82c-.06.15-.13.3-.19.44l-.18.47c-.24.56-.48,1.13-.69,1.7l-.44,1.22c-.23.63-.47,1.3-.67,1.94a68.91,68.91,0,0,0-3.38,20.43c0,1,0,2.1,0,3.09v.45c0,.7.07,1.53.15,2.4l0,.65a2.67,2.67,0,0,0,0,.6l.11.6,0,.61a18.41,18.41,0,0,0,.24,1.87l.07.42a61,61,0,0,0,2.91,12.27l.09.27c.17.54.41,1.18.67,1.87l.28.78a14.23,14.23,0,0,0,.83,2l.23.45.18.47a23.59,23.59,0,0,0,1.12,2.41l.26.53c.36.79.8,1.63,1.33,2.56l.14.26c.64,1.18,1.34,2.35,2.08,3.47l.17.26a15.07,15.07,0,0,0,.87,1.3l.38.54c.35.53.71,1,1.11,1.59l.15.21c.47.65,1,1.3,1.49,1.92l.18.21c.77,1,1.66,2,2.59,3,.8.88,1.48,1.59,2.1,2.18l1.73,1.69c.4.38.8.77,1.24,1.14l.12.11c.42.37.84.75,1.26,1.09l.24.2c.81.7,1.56,1.31,2.31,1.87l.23.18c.58.47,1.11.87,1.64,1.22l2.07,1.45c1.42.95,2.87,1.83,4.32,2.62l.1.06a67.59,67.59,0,0,0,39.89,8.53h.17c1.37-.11,2.83-.3,4.75-.63l.1,0c1.82-.29,3.25-.58,4.51-.9l.26-.07c.91-.2,1.85-.45,2.85-.73l2.11-.65.78-.24L365,716l.14,0c1.14-.29,2.28-.55,3.42-.77l.14,0c.76-.14,1.56-.26,2.32-.37a57.23,57.23,0,0,1,6.4-.58h.2a52.79,52.79,0,0,1,38.74,15.44l1,1.07,1,1,.14.16a62.44,62.44,0,0,1,4.8,6.18c.55.78,1.09,1.64,1.66,2.62.75,1.24,1.43,2.48,2.08,3.79a55.23,55.23,0,0,1,5.7,22c.05.85.06,1.7.08,2.55v.27a55.71,55.71,0,0,1-16.43,39.7L311.47,913.94l-8.7,8.72a22.24,22.24,0,0,1-11.36,6.06L528,1165.31a97.55,97.55,0,0,0,137.83,0L902.43,928.73A22.09,22.09,0,0,1,891.11,922.62Z"/><path class="cls-2" d="M284.4,737.6a102.53,102.53,0,0,0,68.2,16.53A104.47,104.47,0,0,1,284.4,737.6Zm159.74-35.84s.06.06.1.07c-.29-.3-.57-.59-.85-.92A7,7,0,0,0,444.14,701.76Zm-2.89-3.87a16.36,16.36,0,0,1-1.4-3.32A18,18,0,0,0,441.25,697.89Zm-1.75-4.47a22.21,22.21,0,0,1-.51-3.67A16.82,16.82,0,0,0,439.5,693.42Zm-.51-3.67a22.42,22.42,0,0,1,.14-3.64A14.81,14.81,0,0,0,439,689.75Zm.16-3.74a22.58,22.58,0,0,1,.74-3.3A18.17,18.17,0,0,0,439.15,686Zm-22.73-10.79c-.21.64-.39,1.32-.57,2,.18-.64.39-1.31.6-1.95a78.8,78.8,0,0,0-9.17-67.15A79.77,79.77,0,0,1,416.42,675.22ZM237.94,649.83A102.69,102.69,0,0,0,240,671.22c-.15-.8-.3-1.6-.43-2.43a99.91,99.91,0,0,1-1.4-20.72,23.43,23.43,0,0,1,.12-2.77c.06-1,.11-2,.2-3s.19-1.92.3-2.87.19-1.81.32-2.72.23-1.54.36-2.31c.16-1.12.39-2.26.63-3.4s.45-2.24.72-3.37a102,102,0,0,1,12.78-31A102,102,0,0,0,237.94,649.83Zm2.3,22.68c.09.49.21,1,.3,1.46s.26,1.09.4,1.64c-.25-.92-.43-1.85-.63-2.78-.11-.54-.21-1.08-.32-1.61,0,.2.07.4.11.59S240.19,672.28,240.24,672.51Zm100-100c-1.17,0-2.3,0-3.46.13-.88.06-1.77.11-2.67.2a19.92,19.92,0,0,0-2.18.25.46.46,0,0,0-.3,0c-.86.1-1.72.19-2.61.36s-1.86.3-2.83.51-1.9.44-2.8.67a80,80,0,0,1,51.39,5.25A77.59,77.59,0,0,0,340.24,572.53ZM284.4,737.6a102.53,102.53,0,0,0,68.2,16.53A104.47,104.47,0,0,1,284.4,737.6Zm159.74-35.84s.06.06.1.07c-.29-.3-.57-.59-.85-.92A7,7,0,0,0,444.14,701.76Zm-2.89-3.87a16.36,16.36,0,0,1-1.4-3.32A18,18,0,0,0,441.25,697.89Zm-1.75-4.47a22.21,22.21,0,0,1-.51-3.67A16.82,16.82,0,0,0,439.5,693.42Zm-.51-3.67a22.42,22.42,0,0,1,.14-3.64A14.81,14.81,0,0,0,439,689.75Zm.16-3.74a22.58,22.58,0,0,1,.74-3.3A18.17,18.17,0,0,0,439.15,686ZM237.94,649.83A102.69,102.69,0,0,0,240,671.22c-.15-.8-.3-1.6-.43-2.43a99.91,99.91,0,0,1-1.4-20.72,23.43,23.43,0,0,1,.12-2.77c.06-1,.11-2,.2-3s.19-1.92.3-2.87.19-1.81.32-2.72.23-1.54.36-2.31c.16-1.12.39-2.26.63-3.4s.45-2.24.72-3.37a102,102,0,0,1,12.78-31A102,102,0,0,0,237.94,649.83Zm2.3,22.68c.09.49.21,1,.3,1.46s.26,1.09.4,1.64c-.25-.92-.43-1.85-.63-2.78-.11-.54-.21-1.08-.32-1.61,0,.2.07.4.11.59S240.19,672.28,240.24,672.51Z"/><path class="cls-3" d="M240.94,675.61c-.27-1-.47-2.06-.7-3.1.09.49.21,1,.3,1.46S240.8,675.06,240.94,675.61Z"/><path class="cls-4" d="M898.17,278.26,889.46,287,784.57,391.88a45.79,45.79,0,0,0-13.51,32.61c0,1.53.09,3.08.23,4.57A45.66,45.66,0,0,0,775.87,445c.22.42.41.8.63,1.19a45.83,45.83,0,0,0,8,10.81s0,0,.05.09a43.46,43.46,0,0,0,44,10.38,81.64,81.64,0,0,1,8.26-2.16.13.13,0,0,0,.08,0,78.26,78.26,0,0,1,63.6,14.81c.76.57,1.5,1.17,2.22,1.77s1.49,1.23,2.19,1.89,1.41,1.25,2.1,2a15.13,15.13,0,0,1,1.15,1.11.76.76,0,0,1,.11.14c.93.9,1.81,1.83,2.65,2.75,1,1.14,2,2.28,2.94,3.44.72.85,1.39,1.72,2,2.62s1.19,1.67,1.76,2.51c.38.5.74,1.07,1.09,1.64.91,1.37,1.77,2.8,2.54,4.25.65,1.12,1.25,2.26,1.78,3.42a34.08,34.08,0,0,1,1.61,3.49,22.76,22.76,0,0,1,1.45,3.56c.32.85.65,1.67.89,2.53a13.06,13.06,0,0,1,.47,1.51,75.3,75.3,0,0,1,3.76,25,77.29,77.29,0,0,1-6.43,30,34.71,34.71,0,0,1-1.57,3.4c-.3.72-.68,1.46-1,2.16a67.65,67.65,0,0,1-3.58,6.14c-.63,1-1.28,1.95-2,2.93-.31.46-.64.88-1,1.3-1.08,1.46-2.23,2.9-3.4,4.26-.59.72-1.21,1.39-1.83,2.06q-1.85,2-3.89,4a74.92,74.92,0,0,1-8,6.62,20.12,20.12,0,0,1-2.1,1.47l-2.13,1.4c-1.18.74-2.35,1.44-3.58,2.1s-2.34,1.26-3.54,1.81a31.71,31.71,0,0,1-3.25,1.5l-.17.1a33.93,33.93,0,0,1-3.5,1.39,76.45,76.45,0,0,1-26.67,5.09A77.78,77.78,0,0,1,815.26,612L813,610.74a80.51,80.51,0,0,1-10.78-7.48c-.53-.47-1.09-1-1.66-1.43-.27-.21-.49-.46-.76-.67-1.38-1.25-2.71-2.55-4-3.88-.63-.64-1.25-1.31-1.87-2s-1.24-1.35-1.8-2.09c-1-1.13-1.89-2.32-2.79-3.47s-1.62-2.25-2.41-3.38-1.38-2.15-2-3.27c-.58-1-1.12-1.94-1.66-2.92a77.81,77.81,0,0,1-8.76-48.7c.17-1.3.39-2.55.63-3.83a72.89,72.89,0,0,1,2.27-9,44,44,0,0,0,.73-24.63,41.31,41.31,0,0,0-2.88-7.83,40.09,40.09,0,0,0-2.84-4.91q-1.29-1.94-2.8-3.81c-.84-1-1.68-1.91-2.6-2.81,0,0-.06-.05-.08-.1A45.63,45.63,0,0,0,743.54,462a50,50,0,0,0-6-.77c-1-.1-2-.11-3.11-.11a45.73,45.73,0,0,0-32.59,13.48L596.93,579.53,492,474.64a21.5,21.5,0,0,1,0-30.4.1.1,0,0,1,.05-.06,19.46,19.46,0,0,1,1.84-1.58c.32-.24.64-.49,1-.72a10.12,10.12,0,0,1,1-.6,19,19,0,0,1,15.19-1.39,103.7,103.7,0,0,0,108.28-29.38c35.83-39.7,35.08-101.28-1.69-140.15A103.4,103.4,0,0,0,444,372.72a18.93,18.93,0,0,1-4.33,19.16.17.17,0,0,0-.1.08,21.51,21.51,0,0,1-30.3-.07L304.36,287l-8.7-8.7a12,12,0,0,0-8.68-3.6,12.22,12.22,0,0,0-8.72,3.6L28.51,528a97.49,97.49,0,0,0,0,137.81L278.29,915.6a12.34,12.34,0,0,0,17.4,0l8.71-8.73L409.28,802a45.71,45.71,0,0,0,13.51-32.6c0-.77,0-1.54-.07-2.32A45.27,45.27,0,0,0,418.06,749c-.55-1.1-1.11-2.12-1.74-3.16-.4-.69-.83-1.39-1.28-2a49.31,49.31,0,0,0-4.06-5.24c-.53-.58-1.05-1.12-1.59-1.66a1.71,1.71,0,0,0-.11-.14,43,43,0,0,0-31.45-12.51,47,47,0,0,0-5.38.49c-.64.09-1.32.19-2,.31a52.49,52.49,0,0,0-5.19,1.3,0,0,0,0,1-.05,0c-1.87.59-3.72,1.11-5.62,1.55s-3.64.81-5.43,1.09-3.76.6-5.66.75A77.79,77.79,0,0,1,302.77,720a72.9,72.9,0,0,1-7.13-4.5l0,0c-.8-.54-1.55-1.11-2.3-1.71-1-.73-1.9-1.49-2.82-2.28-.53-.44-1.06-.91-1.59-1.38-.74-.63-1.4-1.28-2.1-1.94-.41-.37-.79-.72-1.16-1.11,0,0-.09-.1-.11-.14-.9-.86-1.78-1.79-2.65-2.75-1-1.14-2-2.29-2.94-3.45-.71-.84-1.39-1.72-2-2.61-.5-.69-1-1.36-1.44-2.07a24.53,24.53,0,0,1-1.41-2.09c-.91-1.37-1.76-2.8-2.54-4.24-.65-1.12-1.25-2.27-1.78-3.43a32.22,32.22,0,0,1-1.61-3.49,23.66,23.66,0,0,1-1.45-3.55c-.32-.85-.66-1.75-.94-2.62a71.24,71.24,0,0,1-3.38-14.27,27.37,27.37,0,0,1-.37-3,13.82,13.82,0,0,1-.2-2.24c-.09-1.05-.17-2.09-.18-3.15-.06-1.25-.06-2.49-.05-3.76a78.64,78.64,0,0,1,3.84-23.29c.25-.77.53-1.57.81-2.33.14-.4.29-.83.44-1.23.27-.73.57-1.45.87-2.17.14-.4.32-.79.5-1.18a4.29,4.29,0,0,1,.4-.84,6.15,6.15,0,0,1,.38-.88,73.71,73.71,0,0,1,5-9.15c.45-.72.94-1.46,1.42-2.17s1-1.44,1.52-2.14c1-1.31,2-2.6,3-3.85a78.73,78.73,0,0,1,6.52-7,73.54,73.54,0,0,1,8-6.62,22,22,0,0,1,2.11-1.48l2.12-1.4c1.18-.73,2.35-1.44,3.58-2.09s2.34-1.27,3.55-1.82c1.06-.55,2.14-1.06,3.24-1.5.06-.09.1-.12.17-.1a36.52,36.52,0,0,1,3.51-1.39c.77-.3,1.53-.57,2.29-.8A69.44,69.44,0,0,1,326.19,574c1-.21,1.89-.37,2.83-.51s1.75-.26,2.61-.36a.46.46,0,0,1,.3,0,19.92,19.92,0,0,1,2.18-.25c.9-.09,1.79-.14,2.67-.2,1.16-.09,2.29-.11,3.46-.13a77.59,77.59,0,0,1,34.54,7.4l2.06,1c1.19.61,2.37,1.22,3.53,1.89a80.28,80.28,0,0,1,11.24,7.78c.53.47,1.1.95,1.66,1.43.27.22.5.46.77.68,1.37,1.24,2.7,2.54,4,3.87.63.64,1.26,1.28,1.87,2s1.24,1.35,1.81,2.09c1.05,1.23,2,2.47,3,3.75s1.75,2.44,2.58,3.68a78.8,78.8,0,0,1,9.17,67.15c-.21.64-.42,1.31-.6,1.95-.38,1.43-.69,2.87-.94,4.34a10.8,10.8,0,0,0-.16,1.16c-.2,1.4-.32,2.79-.4,4.19,0,1,0,1.91,0,2.87,0,.59,0,1.18.07,1.77a39.37,39.37,0,0,0,.66,5.53c.16.91.38,1.85.64,2.79.33,1.22.67,2.4,1.08,3.57s.91,2.31,1.41,3.43c.35.75.73,1.51,1.12,2.23a6.59,6.59,0,0,0,.58,1.07c.44.81.95,1.63,1.46,2.43a43.35,43.35,0,0,0,5.4,6.61s0,.05.06.06l.09.09a48.29,48.29,0,0,0,3.94,3.5c1,.76,2,1.5,3,2.19.83.55,1.67,1.1,2.52,1.59,0,0,0,0,.06,0,.85.48,1.74,1,2.61,1.39a44.63,44.63,0,0,0,12.74,4.07c1.5.25,3,.41,4.56.53,1,.05,2.05.07,3.07.09A45.66,45.66,0,0,0,492,719.22L596.92,614.33l115,114.93a21.5,21.5,0,0,1,0,30.4A18.77,18.77,0,0,1,692.73,764a103.76,103.76,0,0,0-108.19,29.3c-35.85,39.65-35.19,101.18,1.52,140.14A103.43,103.43,0,0,0,759.89,831.18,18.79,18.79,0,0,1,764.23,812a21.49,21.49,0,0,1,30.36,0l94.9,94.85,8.71,8.71a12.29,12.29,0,0,0,17.4,0l249.7-249.73a97.47,97.47,0,0,0,0-137.83L915.57,278.26A12.3,12.3,0,0,0,898.17,278.26ZM474.64,701.82a21.52,21.52,0,0,1-30.38,0l0,0s-.06-.06-.1-.07a7,7,0,0,1-.75-.85,20.61,20.61,0,0,1-2.14-3,16.36,16.36,0,0,1-1.4-3.32c-.13-.36-.24-.75-.35-1.15a16.82,16.82,0,0,1-.51-3.67,14.81,14.81,0,0,1,.14-3.64.06.06,0,0,0,0-.1,18.17,18.17,0,0,1,.74-3.3c.86-2.68,1.59-5.4,2.21-8.11.22-1,.44-1.92.63-2.89s.35-1.83.52-2.77a104.34,104.34,0,0,0-17.07-76.77c-1.09-1.53-2.2-3.06-3.37-4.54-.81-1.06-1.66-2.09-2.52-3.11-.69-.81-1.39-1.61-2.09-2.39s-1.41-1.54-2.12-2.27c-.93-1-1.91-2-2.89-2.93s-1.77-1.67-2.68-2.5l-2.33-2c-.8-.69-1.61-1.34-2.39-1.95s-1.63-1.28-2.44-1.9c-1.64-1.24-3.29-2.41-5-3.52a104.18,104.18,0,0,0-109.93-2.54c-.81.47-1.6.95-2.39,1.46l-2.38,1.55c-1.87,1.25-3.71,2.58-5.5,4-.69.55-1.34,1.06-2,1.62-.41.32-.79.62-1.17,1l-1.83,1.54c-1,.84-1.87,1.69-2.8,2.57-.4.4-.82.76-1.22,1.16-.73.68-1.43,1.4-2.15,2.16-.6.6-1.16,1.22-1.72,1.83-.83.91-1.61,1.79-2.4,2.71-.63.7-1.22,1.42-1.81,2.13-.93,1.14-1.82,2.28-2.67,3.44-.56.72-1.08,1.45-1.62,2.22-.28.36-.52.74-.78,1.14-.83,1.2-1.63,2.44-2.4,3.69a102,102,0,0,0-12.78,31c-.27,1.13-.53,2.22-.72,3.37s-.47,2.28-.63,3.4c-.13.77-.26,1.54-.36,2.31s-.23,1.83-.32,2.72-.22,1.9-.3,2.87-.14,2-.2,3a23.43,23.43,0,0,0-.12,2.77,99.91,99.91,0,0,0,1.4,20.72c.16,1,.33,2,.54,3,.05.24.09.47.14.7.23,1,.43,2.08.7,3.1.17.7.34,1.44.52,2.14s.33,1.22.5,1.81c.24.86.49,1.69.74,2.53.3,1,.65,2.06,1,3.1.44,1.32.93,2.62,1.42,3.92.58,1.5,1.21,3,1.84,4.42s1.33,2.91,2,4.33,1.59,3,2.43,4.55,1.84,3.18,2.84,4.73a1,1,0,0,0,.14.18c.41.62.79,1.23,1.22,1.82.64,1,1.3,2,2,2.87.82,1.13,1.65,2.26,2.53,3.33.56.74,1.14,1.44,1.74,2.18.89,1,1.78,2.08,2.71,3.09s2.14,2.32,3.26,3.43c.11.13.27.25.37.39,2.3,2.29,4.67,4.45,7.15,6.5.86.7,1.7,1.36,2.55,2,1.1.91,2.25,1.77,3.42,2.59,1,.67,2,1.38,3,2.05a104.47,104.47,0,0,0,68.2,16.53,0,0,0,0,1,0,0c1.83-.19,3.65-.44,5.48-.75,0,0,0,0,.07,0,1.8-.32,3.6-.64,5.38-1,3.05-.67,6.11-1.49,9.14-2.46a19.07,19.07,0,0,1,16.35,2,13.62,13.62,0,0,1,1.84,1.41c.29.26.59.52.87.82,0,0,.06,0,.1.06a21.5,21.5,0,0,1,0,30.4L287,889.46l-241.06-241a72.84,72.84,0,0,1,0-103L287,304.39l104.93,104.9a46.19,46.19,0,0,0,65.21,0l.14-.14a43.41,43.41,0,0,0,10.24-43.9,78.79,78.79,0,0,1,132.37-78c28,29.65,28.6,76.55,1.32,106.78a79.1,79.1,0,0,1-82.53,22.38,43.32,43.32,0,0,0-44,10.41s-.05.06-.1.09a46.11,46.11,0,0,0,.1,65.12L579.52,596.92Zm673.27-156.41a72.86,72.86,0,0,1,0,103l-241,241L812,794.57a46.11,46.11,0,0,0-65.21,0,43.45,43.45,0,0,0-10.38,44A78.8,78.8,0,0,1,604,916.53c-28-29.66-28.46-76.54-1.15-106.72a79.13,79.13,0,0,1,82.48-22.36,43.25,43.25,0,0,0,44-10.38,46.15,46.15,0,0,0,0-65.21L614.33,596.93,719.22,492a21.52,21.52,0,0,1,30.4,0,.16.16,0,0,1,.06.05,16.92,16.92,0,0,1,3.44,4.93,14.67,14.67,0,0,1,.91,2.21,8.32,8.32,0,0,1,.33,1.21,16.3,16.3,0,0,1,.51,3.64,19.62,19.62,0,0,1-.91,7.07q-1.37,4.27-2.32,8.66c-.23,1-.46,2-.66,3-.2,1.19-.41,2.37-.62,3.55s-.34,2.35-.47,3.55a104.49,104.49,0,0,0-.77,10.61c0,1.45,0,2.91,0,4.36,0,2.53.21,5.08.45,7.59.08,1,.21,2.06.34,3.07s.26,1.89.4,2.84a105.05,105.05,0,0,0,15.29,40.25c.68,1.09,1.39,2.12,2.13,3.19s1.73,2.36,2.61,3.54,2,2.46,3,3.68c1.43,1.73,2.94,3.41,4.5,5.07a4.23,4.23,0,0,1,.63.64c.75.74,1.49,1.49,2.25,2.2s1.74,1.67,2.65,2.49l2.32,2.05c.8.68,1.61,1.34,2.39,1.95s1.63,1.27,2.45,1.89c1.63,1.24,3.28,2.41,5,3.52a104.19,104.19,0,0,0,112.31,1.08l2.38-1.55c1.87-1.25,3.72-2.57,5.51-4,.69-.54,1.34-1.06,2-1.61.42-.33.79-.63,1.17-1,.62-.53,1.22-1,1.83-1.55,1-.84,1.88-1.68,2.8-2.56.4-.41.83-.76,1.23-1.17.72-.68,1.43-1.4,2.14-2.15s1.16-1.22,1.73-1.83c.82-.91,1.61-1.79,2.4-2.71.62-.71,1.22-1.42,1.81-2.14q1.69-2.06,3.19-4.17c1.16-1.61,2.3-3.28,3.37-4.95a1.1,1.1,0,0,0,.14-.26c.68-1.05,1.36-2.11,2-3.18a9.34,9.34,0,0,0,.53-.91c.55-1,1.06-1.91,1.56-2.83a102.45,102.45,0,0,0,8.62-21.83,104.88,104.88,0,0,0-1.91-60.54c-.41-1.31-.9-2.61-1.4-3.87s-1.09-2.73-1.67-4.09c-.73-1.65-1.49-3.28-2.27-4.87-.05-.08-.06-.16-.12-.21-.74-1.47-1.51-2.92-2.33-4.38l-.2-.34c-.88-1.58-1.83-3.19-2.84-4.73-.53-.87-1.11-1.72-1.71-2.61a1.77,1.77,0,0,0-.32-.41c-1.17-1.77-2.4-3.41-3.71-5-.71-.88-1.39-1.75-2.14-2.61-1.63-1.93-3.32-3.8-5.13-5.6a4.08,4.08,0,0,0-.39-.43l-.43-.44-.78-.76c-.26-.25-.51-.53-.78-.75-.9-.86-1.83-1.73-2.77-2.56-1.89-1.67-3.82-3.28-5.78-4.79a1.31,1.31,0,0,0-.27-.22c-1.37-1-2.7-2-4.13-3-1.23-.84-2.46-1.68-3.71-2.45a104,104,0,0,0-58.07-15.75c-1.47.05-2.9.1-4.36.22-1.66.1-3.31.28-5,.49a9.1,9.1,0,0,0-1.39.17c-2.19.29-4.36.65-6.55,1.09A101.9,101.9,0,0,0,821.14,444a0,0,0,0,0,0,0,23.64,23.64,0,0,1-2.31.58c-.26,0-.57.11-.88.17a19.42,19.42,0,0,1-2.42.19,18.37,18.37,0,0,1-11.71-3.69,22.48,22.48,0,0,1-1.8-1.57v0a21.13,21.13,0,0,1-6.31-15.19,21.8,21.8,0,0,1,1.63-8.23,19.51,19.51,0,0,1,2-3.66,21.81,21.81,0,0,1,2.7-3.28L906.86,304.36Z"/><path class="cls-5" d="M596.92,24.61a72.4,72.4,0,0,1,51.49,21.3L889.46,287l8.71-8.69a12.3,12.3,0,0,1,17.4,0L665.82,28.51a97.49,97.49,0,0,0-137.81,0L278.26,278.29a12.22,12.22,0,0,1,8.72-3.6,12,12,0,0,1,8.68,3.6l8.7,8.7,241-241A72.36,72.36,0,0,1,596.92,24.61Z"/><path class="cls-5" d="M1449.44,531.57l-76.32-99.89v99.89h-32.28V325.12h32.28V424l71-98.87h37.65l-73.26,101.31L1489,531.57Z"/><path class="cls-5" d="M1481.85,428.6c0-58.91,47.89-107.06,106.68-107.06s106.81,48.15,106.81,107.06c0,58.4-48.16,106.3-106.94,106.3S1481.85,487,1481.85,428.6Zm180.7-.25a74.36,74.36,0,0,0-74.15-74.15c-40.73,0-73.9,33.29-73.9,74.15a74,74,0,0,0,73.9,73.76C1629.12,502.11,1662.55,468.94,1662.55,428.35Z"/><path class="cls-5" d="M1927.27,320.64V531.57h-32.4V417.08l-68.52,111h-.26L1757.45,417V531.57h-32.4V320.64h2.43l98.74,150.1,98.61-150.1Z"/><path class="cls-5" d="M2097,500.19h-97.72l-14.08,31.38h-35.09l97.07-210.67h1.92l97.08,210.67h-35.09Zm-12.55-27.79-36.24-80.68-36.38,80.68Z"/><path class="cls-5" d="M2335,324.61V535.15h-1.54l-132-137.93v134.6h-32.41V321.54h1.67l131.78,137.67V324.61Z"/><path class="cls-5" d="M2540,428.6c0,63.4-40.85,103-106.42,103h-58.79V325.12h58.79C2499.1,325,2540,364.7,2540,428.6Zm-32.79-.13c0-43.79-28.43-71.2-73.76-71.2H2407v142h26.76C2478.86,499.29,2507.16,472,2507.16,428.47Z"/><path class="cls-5" d="M2559.8,428.6c0-58.91,47.9-107.06,106.68-107.06s106.81,48.15,106.81,107.06c0,58.4-48.15,106.3-106.94,106.3S2559.8,487,2559.8,428.6Zm180.7-.25a74.35,74.35,0,0,0-74.15-74.15c-40.72,0-73.89,33.29-73.89,74.15a74,74,0,0,0,73.89,73.76C2707.08,502.11,2740.5,468.94,2740.5,428.35Z"/><path class="cls-5" d="M2793.14,428.6c0-58.91,47.9-107.06,106.68-107.06s106.81,48.15,106.81,107.06c0,58.4-48.15,106.3-106.93,106.3S2793.14,487,2793.14,428.6Zm180.71-.25a74.36,74.36,0,0,0-74.15-74.15c-40.73,0-73.9,33.29-73.9,74.15a74,74,0,0,0,73.9,73.76C2940.42,502.11,2973.85,468.94,2973.85,428.35Z"/><path class="cls-5" d="M3103.33,428.47c0-58.14,48.53-106.93,106.55-106.93,26.76.38,51.48,11.78,71.72,31.5l-18.83,25.49c-14.47-14.47-33.3-24.08-53.53-24.08-37.4,0-73.13,32.79-73.13,74.15,0,41.62,36.24,73.77,73.26,73.77,21.13,0,39.31-10.5,53.53-24.59l18.7,26.13c-17.81,17.54-40.47,31-71.21,31C3151.86,534.9,3103.33,486.74,3103.33,428.47Z"/><path class="cls-5" d="M3288.64,428.6c0-58.91,47.9-107.06,106.68-107.06s106.81,48.15,106.81,107.06c0,58.4-48.15,106.3-106.94,106.3S3288.64,487,3288.64,428.6Zm180.7-.25a74.35,74.35,0,0,0-74.15-74.15c-40.72,0-73.89,33.29-73.89,74.15a74,74,0,0,0,73.89,73.76C3435.92,502.11,3469.34,468.94,3469.34,428.35Z"/><path class="cls-5" d="M3734.06,320.64V531.57h-32.4V417.08l-68.51,111h-.26L3564.25,417V531.57h-32.41V320.64h2.44L3633,470.74l98.61-150.1Z"/><path class="cls-5" d="M3976,320.64V531.57h-32.4V417.08l-68.51,111h-.26L3806.17,417V531.57h-32.4V320.64h2.43l98.74,150.1,98.61-150.1Z"/><path class="cls-5" d="M4013.77,453.32V325.12h32.53V453.19c0,28.56,20.1,49.43,45.33,49.43s45.59-20.87,45.59-49.43V325.12h32.66v128.2c0,47.38-34.19,82.09-78.12,82.09S4013.77,500.7,4013.77,453.32Z"/><path class="cls-5" d="M4373.51,324.61V535.15H4372l-132-137.93v134.6h-32.4V321.54h1.66L4341,459.21V324.61Z"/><path class="cls-5" d="M4413.21,325.12h32.4V531.57h-32.4Z"/><path class="cls-5" d="M4614.67,357.27h-55.33v174.3h-32.53V357.27h-55.32V325.12h143.18Z"/><path class="cls-5" d="M4692,443.33,4623.5,325.12H4660l48,82.22,48.15-82.22h36.5l-68.52,118.21v88.24H4692Z"/><path class="cls-5" d="M1470.83,814.93h-97.71L1359,846.31h-35.09L1421,635.64h1.92L1520,846.31h-35.09Zm-12.55-27.79L1422,706.46l-36.37,80.68Z"/><path class="cls-5" d="M1667.42,814v32.27H1542.94V639.87h32.4V814Z"/><path class="cls-5" d="M1817.77,814v32.27H1693.29V639.87h32.4V814Z"/><path class="cls-5" d="M1843.64,639.87H1876V846.31h-32.4Z"/><path class="cls-5" d="M2045.73,814.93H1948l-14.09,31.38h-35.09l97.07-210.67h1.92l97.08,210.67h-35.09Zm-12.55-27.79-36.24-80.68-36.37,80.68Z"/><path class="cls-5" d="M2283.81,639.35V849.9h-1.53L2150.24,712v134.6h-32.4V636.28h1.66L2251.28,774V639.35Z"/><path class="cls-5" d="M2313.65,743.22c0-58.15,48.54-106.94,106.56-106.94,26.76.38,51.48,11.78,71.71,31.51l-18.82,25.48c-14.47-14.47-33.3-24.08-53.53-24.08-37.4,0-73.13,32.79-73.13,74.15,0,41.63,36.24,73.77,73.25,73.77,21.13,0,39.32-10.5,53.54-24.59l18.69,26.13c-17.8,17.54-40.47,31-71.2,31C2362.19,849.64,2313.65,801.49,2313.65,743.22Z"/><path class="cls-5" d="M2550.07,671.75v52.9h78.12v32.27h-78.12V814h90.54v32.27H2517.67V639.87h122.94v31.88Z"/></svg>